<svg xmlns="http://www.w3.org/2000/svg" width="64" height="64" viewBox="0 0 64 64" fill="none"><path d="M20 29.2974C20 28.1033 20.9594 27.1353 22.1429 27.1353H26.8571V31.4596H22.1429C20.9594 31.4596 20 30.4915 20 29.2974Z" fill="#FF8F0D"></path><path d="M37.1426 27.1353H41.8569C43.0403 27.1353 43.9997 28.1033 43.9997 29.2974C43.9997 30.4915 43.0403 31.4596 41.8569 31.4596H37.1426V27.1353Z" fill="#FF8F0D"></path><path d="M26.8574 27.1353H37.1431V37.0812H26.8574V27.1353Z" fill="#FF8F0D"></path><path d="M26.8574 37.0811H31.1431V41.8378C31.1431 43.0319 30.1837 44 29.0003 44C27.8168 44 26.8574 43.0319 26.8574 41.8378V37.0811Z" fill="#FF8F0D"></path><path d="M32.8574 37.0811H37.1431V41.8378C37.1431 43.0319 36.1837 44 35.0003 44C33.8168 44 32.8574 43.0319 32.8574 41.8378V37.0811Z" fill="#FF8F0D"></path><path d="M29 23.027C29 21.3552 30.3431 20 32 20C33.6569 20 35 21.3552 35 23.027C35 24.6988 33.6569 26.0541 32 26.0541C30.3431 26.0541 29 24.6988 29 23.027Z" fill="#FF8F0D"></path><path d="M26.8574 33.8379H31.1431V39.4595H26.8574V33.8379Z" fill="#23BF62"></path><path d="M32.8574 33.8379H37.1431V39.4595H32.8574V33.8379Z" fill="#23BF62"></path><path d="M26.8574 33.8379H37.1431V37.0811H26.8574V33.8379Z" fill="#23BF62"></path></svg>