<svg xmlns="http://www.w3.org/2000/svg" width="24" height="24" viewBox="0 0 24 24" fill="none">
  <path d="M 20.073 15.273 L 21.216 15.777 L 21.222 15.765 L 20.073 15.273 Z M 20.433 17.258 L 19.539 18.132 L 19.549 18.142 L 20.433 17.258 Z M 20.498 17.324 L 19.614 18.208 L 19.615 18.208 L 20.498 17.324 Z M 20.498 20.411 L 19.615 19.527 L 19.614 19.528 L 20.498 20.411 Z M 17.411 20.411 L 18.295 19.528 L 18.295 19.527 L 17.411 20.411 Z M 17.345 20.345 L 18.229 19.462 L 18.22 19.452 L 17.345 20.345 Z M 15.36 19.985 L 15.852 21.134 L 15.865 21.129 L 15.36 19.985 Z M 14.269 21.633 L 13.019 21.628 L 13.019 21.633 L 14.269 21.633 Z M 9.905 21.72 L 11.155 21.72 C 11.155 21.71 11.155 21.701 11.155 21.691 L 9.905 21.72 Z M 8.727 20.073 L 8.223 21.216 C 8.247 21.227 8.271 21.237 8.296 21.246 L 8.727 20.073 Z M 6.742 20.433 L 5.868 19.539 L 5.858 19.549 L 6.742 20.433 Z M 6.676 20.498 L 5.792 19.614 L 5.792 19.615 L 6.676 20.498 Z M 3.589 20.498 L 4.473 19.615 L 4.472 19.614 L 3.589 20.498 Z M 2.949 18.955 L 4.199 18.955 L 2.949 18.955 Z M 3.589 17.411 L 4.472 18.295 L 4.473 18.295 L 3.589 17.411 Z M 3.655 17.345 L 4.538 18.229 L 4.548 18.22 L 3.655 17.345 Z M 4.015 15.36 L 2.866 15.852 L 2.871 15.865 L 4.015 15.36 Z M 2.367 14.269 L 2.372 13.019 L 2.367 13.019 L 2.367 14.269 Z M 0 12.087 L -1.25 12.087 L 0 12.087 Z M 2.182 9.905 L 2.182 11.155 L 2.182 9.905 Z M 2.28 9.905 L 2.28 11.155 C 2.29 11.155 2.299 11.155 2.309 11.155 L 2.28 9.905 Z M 3.927 8.727 L 2.784 8.223 C 2.773 8.247 2.763 8.271 2.754 8.296 L 3.927 8.727 Z M 4.052 7.679 L 2.822 7.902 L 4.052 7.679 Z M 3.567 6.742 L 4.461 5.868 L 4.451 5.858 L 3.567 6.742 Z M 3.502 6.676 L 4.386 5.792 L 4.385 5.792 L 3.502 6.676 Z M 3.502 3.589 L 4.385 4.473 L 4.386 4.472 L 3.502 3.589 Z M 6.589 3.589 L 5.705 4.472 L 5.705 4.473 L 6.589 3.589 Z M 6.655 3.655 L 5.771 4.538 L 5.78 4.548 L 6.655 3.655 Z M 8.64 4.015 L 8.64 2.765 C 8.466 2.765 8.294 2.801 8.135 2.871 L 8.64 4.015 Z M 8.727 4.015 L 8.727 5.265 C 8.897 5.265 9.064 5.23 9.22 5.163 L 8.727 4.015 Z M 9.818 2.367 L 11.068 2.372 L 11.068 2.367 L 9.818 2.367 Z M 12 0 L 12 -1.25 L 12 0 Z M 14.182 2.28 L 12.932 2.28 L 12.932 2.285 L 14.182 2.28 Z M 15.273 3.927 L 15.777 2.784 L 15.765 2.778 L 15.273 3.927 Z M 16.321 4.052 L 16.098 2.822 L 16.321 4.052 Z M 17.258 3.567 L 18.132 4.461 L 18.142 4.451 L 17.258 3.567 Z M 17.324 3.502 L 18.208 4.386 L 18.208 4.385 L 17.324 3.502 Z M 18.867 2.862 L 18.867 4.112 L 18.867 2.862 Z M 20.411 3.502 L 19.527 4.385 L 19.528 4.386 L 20.411 3.502 Z M 20.411 6.589 L 19.528 5.705 L 19.527 5.705 L 20.411 6.589 Z M 20.345 6.655 L 19.462 5.771 L 19.452 5.78 L 20.345 6.655 Z M 19.985 8.64 L 21.235 8.64 C 21.235 8.466 21.199 8.294 21.129 8.135 L 19.985 8.64 Z M 19.985 8.727 L 18.735 8.727 C 18.735 8.897 18.77 9.064 18.837 9.22 L 19.985 8.727 Z M 21.633 9.818 L 21.628 11.068 L 21.633 11.068 L 21.633 9.818 Z M 21.72 14.182 L 21.72 12.932 L 21.715 12.932 L 21.72 14.182 Z M 15.273 12 L 14.023 12 C 14.023 13.117 13.117 14.023 12 14.023 L 12 15.273 L 12 16.523 C 14.498 16.523 16.523 14.498 16.523 12 L 15.273 12 Z M 12 15.273 L 12 14.023 C 10.883 14.023 9.977 13.117 9.977 12 L 8.727 12 L 7.477 12 C 7.477 14.498 9.502 16.523 12 16.523 L 12 15.273 Z M 8.727 12 L 9.977 12 C 9.977 10.883 10.883 9.977 12 9.977 L 12 8.727 L 12 7.477 C 9.502 7.477 7.477 9.502 7.477 12 L 8.727 12 Z M 12 8.727 L 12 9.977 C 13.117 9.977 14.023 10.883 14.023 12 L 15.273 12 L 16.523 12 C 16.523 9.502 14.498 7.477 12 7.477 L 12 8.727 Z M 20.073 15.273 L 18.929 14.768 C 18.683 15.326 18.61 15.944 18.718 16.544 L 19.948 16.321 L 21.178 16.098 C 21.159 15.989 21.172 15.878 21.216 15.777 L 20.073 15.273 Z M 19.948 16.321 L 18.718 16.544 C 18.827 17.143 19.113 17.697 19.539 18.132 L 20.433 17.258 L 21.326 16.384 C 21.249 16.306 21.198 16.206 21.178 16.098 L 19.948 16.321 Z M 20.433 17.258 L 19.549 18.142 L 19.614 18.208 L 20.498 17.324 L 21.382 16.44 L 21.317 16.374 L 20.433 17.258 Z M 20.498 17.324 L 19.615 18.208 C 19.701 18.295 19.77 18.397 19.817 18.51 L 20.972 18.032 L 22.126 17.553 C 21.954 17.136 21.701 16.758 21.382 16.439 L 20.498 17.324 Z M 20.972 18.032 L 19.817 18.51 C 19.864 18.624 19.888 18.745 19.888 18.867 L 21.138 18.867 L 22.388 18.867 C 22.388 18.416 22.299 17.97 22.126 17.553 L 20.972 18.032 Z M 21.138 18.867 L 19.888 18.867 C 19.888 18.99 19.864 19.111 19.817 19.224 L 20.972 19.703 L 22.126 20.181 C 22.299 19.765 22.388 19.318 22.388 18.867 L 21.138 18.867 Z M 20.972 19.703 L 19.817 19.224 C 19.77 19.337 19.701 19.44 19.615 19.527 L 20.498 20.411 L 21.382 21.295 C 21.701 20.977 21.954 20.598 22.126 20.181 L 20.972 19.703 Z M 20.498 20.411 L 19.614 19.528 C 19.527 19.614 19.424 19.683 19.311 19.73 L 19.79 20.884 L 20.269 22.039 C 20.685 21.867 21.064 21.613 21.383 21.294 L 20.498 20.411 Z M 19.79 20.884 L 19.311 19.73 C 19.198 19.777 19.077 19.801 18.955 19.801 L 18.955 21.051 L 18.955 22.301 C 19.406 22.301 19.852 22.212 20.269 22.039 L 19.79 20.884 Z M 18.955 21.051 L 18.955 19.801 C 18.832 19.801 18.711 19.777 18.598 19.73 L 18.119 20.884 L 17.64 22.039 C 18.057 22.212 18.504 22.301 18.955 22.301 L 18.955 21.051 Z M 18.119 20.884 L 18.598 19.73 C 18.485 19.683 18.382 19.614 18.295 19.528 L 17.411 20.411 L 16.527 21.294 C 16.845 21.613 17.224 21.867 17.64 22.039 L 18.119 20.884 Z M 17.411 20.411 L 18.295 19.527 L 18.229 19.462 L 17.345 20.345 L 16.462 21.229 L 16.527 21.295 L 17.411 20.411 Z M 17.345 20.345 L 18.22 19.452 C 17.784 19.026 17.231 18.74 16.631 18.631 L 16.408 19.861 L 16.185 21.091 C 16.293 21.111 16.393 21.162 16.471 21.239 L 17.345 20.345 Z M 16.408 19.861 L 16.631 18.631 C 16.031 18.522 15.413 18.596 14.855 18.842 L 15.36 19.985 L 15.865 21.129 C 15.965 21.085 16.077 21.071 16.185 21.091 L 16.408 19.861 Z M 15.36 19.985 L 14.868 18.837 C 14.321 19.071 13.855 19.46 13.526 19.956 L 14.568 20.646 L 15.611 21.336 C 15.67 21.247 15.754 21.177 15.852 21.134 L 15.36 19.985 Z M 14.568 20.646 L 13.526 19.956 C 13.198 20.452 13.021 21.033 13.019 21.628 L 14.269 21.633 L 15.519 21.638 C 15.52 21.53 15.551 21.426 15.611 21.336 L 14.568 20.646 Z M 14.269 21.633 L 13.019 21.633 L 13.019 21.818 L 14.269 21.818 L 15.519 21.818 L 15.519 21.633 L 14.269 21.633 Z M 14.269 21.818 L 13.019 21.818 C 13.019 22.065 12.921 22.302 12.746 22.477 L 13.63 23.361 L 14.514 24.245 C 15.158 23.601 15.519 22.728 15.519 21.818 L 14.269 21.818 Z M 13.63 23.361 L 12.746 22.477 C 12.571 22.652 12.334 22.75 12.087 22.75 L 12.087 24 L 12.087 25.25 C 12.997 25.25 13.87 24.888 14.514 24.245 L 13.63 23.361 Z M 12.087 24 L 12.087 22.75 C 11.84 22.75 11.603 22.652 11.428 22.477 L 10.544 23.361 L 9.661 24.245 C 10.304 24.888 11.177 25.25 12.087 25.25 L 12.087 24 Z M 10.544 23.361 L 11.428 22.477 C 11.254 22.302 11.155 22.065 11.155 21.818 L 9.905 21.818 L 8.655 21.818 C 8.655 22.728 9.017 23.601 9.661 24.245 L 10.544 23.361 Z M 9.905 21.818 L 11.155 21.818 L 11.155 21.72 L 9.905 21.72 L 8.655 21.72 L 8.655 21.818 L 9.905 21.818 Z M 9.905 21.72 L 11.155 21.691 C 11.141 21.079 10.943 20.486 10.587 19.988 L 9.57 20.715 L 8.553 21.442 C 8.618 21.532 8.653 21.639 8.656 21.749 L 9.905 21.72 Z M 9.57 20.715 L 10.587 19.988 C 10.231 19.49 9.733 19.111 9.159 18.9 L 8.727 20.073 L 8.296 21.246 C 8.399 21.284 8.489 21.352 8.553 21.442 L 9.57 20.715 Z M 8.727 20.073 L 9.232 18.929 C 8.674 18.683 8.056 18.61 7.456 18.718 L 7.679 19.948 L 7.902 21.178 C 8.011 21.159 8.122 21.172 8.223 21.216 L 8.727 20.073 Z M 7.679 19.948 L 7.456 18.718 C 6.857 18.827 6.303 19.113 5.868 19.539 L 6.742 20.433 L 7.616 21.326 C 7.694 21.249 7.794 21.198 7.902 21.178 L 7.679 19.948 Z M 6.742 20.433 L 5.858 19.549 L 5.792 19.614 L 6.676 20.498 L 7.56 21.382 L 7.626 21.317 L 6.742 20.433 Z M 6.676 20.498 L 5.792 19.615 C 5.705 19.701 5.603 19.77 5.49 19.817 L 5.968 20.972 L 6.447 22.126 C 6.864 21.954 7.242 21.701 7.561 21.382 L 6.676 20.498 Z M 5.968 20.972 L 5.49 19.817 C 5.376 19.864 5.255 19.888 5.133 19.888 L 5.133 21.138 L 5.133 22.388 C 5.584 22.388 6.03 22.299 6.447 22.126 L 5.968 20.972 Z M 5.133 21.138 L 5.133 19.888 C 5.01 19.888 4.889 19.864 4.776 19.817 L 4.297 20.972 L 3.819 22.126 C 4.235 22.299 4.682 22.388 5.133 22.388 L 5.133 21.138 Z M 4.297 20.972 L 4.776 19.817 C 4.663 19.77 4.56 19.701 4.473 19.615 L 3.589 20.498 L 2.705 21.382 C 3.023 21.701 3.402 21.954 3.819 22.126 L 4.297 20.972 Z M 3.589 20.498 L 4.472 19.614 C 4.386 19.527 4.317 19.424 4.27 19.311 L 3.116 19.79 L 1.961 20.269 C 2.133 20.685 2.387 21.064 2.706 21.383 L 3.589 20.498 Z M 3.116 19.79 L 4.27 19.311 C 4.223 19.198 4.199 19.077 4.199 18.955 L 2.949 18.955 L 1.699 18.955 C 1.699 19.406 1.788 19.852 1.961 20.269 L 3.116 19.79 Z M 2.949 18.955 L 4.199 18.955 C 4.199 18.832 4.223 18.711 4.27 18.598 L 3.116 18.119 L 1.961 17.64 C 1.788 18.057 1.699 18.504 1.699 18.955 L 2.949 18.955 Z M 3.116 18.119 L 4.27 18.598 C 4.317 18.485 4.386 18.382 4.472 18.295 L 3.589 17.411 L 2.706 16.527 C 2.387 16.845 2.133 17.224 1.961 17.64 L 3.116 18.119 Z M 3.589 17.411 L 4.473 18.295 L 4.538 18.229 L 3.655 17.345 L 2.771 16.462 L 2.705 16.527 L 3.589 17.411 Z M 3.655 17.345 L 4.548 18.22 C 4.974 17.784 5.26 17.231 5.369 16.631 L 4.139 16.408 L 2.909 16.185 C 2.889 16.293 2.838 16.393 2.761 16.471 L 3.655 17.345 Z M 4.139 16.408 L 5.369 16.631 C 5.478 16.031 5.404 15.413 5.158 14.855 L 4.015 15.36 L 2.871 15.865 C 2.915 15.965 2.929 16.077 2.909 16.185 L 4.139 16.408 Z M 4.015 15.36 L 5.163 14.868 C 4.929 14.321 4.54 13.855 4.044 13.526 L 3.354 14.568 L 2.664 15.611 C 2.753 15.67 2.823 15.754 2.866 15.852 L 4.015 15.36 Z M 3.354 14.568 L 4.044 13.526 C 3.548 13.198 2.967 13.021 2.372 13.019 L 2.367 14.269 L 2.362 15.519 C 2.47 15.52 2.574 15.551 2.664 15.611 L 3.354 14.568 Z M 2.367 14.269 L 2.367 13.019 L 2.182 13.019 L 2.182 14.269 L 2.182 15.519 L 2.367 15.519 L 2.367 14.269 Z M 2.182 14.269 L 2.182 13.019 C 1.935 13.019 1.698 12.921 1.523 12.746 L 0.639 13.63 L -0.245 14.514 C 0.399 15.158 1.272 15.519 2.182 15.519 L 2.182 14.269 Z M 0.639 13.63 L 1.523 12.746 C 1.348 12.571 1.25 12.334 1.25 12.087 L 0 12.087 L -1.25 12.087 C -1.25 12.997 -0.888 13.87 -0.245 14.514 L 0.639 13.63 Z M 0 12.087 L 1.25 12.087 C 1.25 11.84 1.348 11.603 1.523 11.428 L 0.639 10.544 L -0.245 9.661 C -0.888 10.304 -1.25 11.177 -1.25 12.087 L 0 12.087 Z M 0.639 10.544 L 1.523 11.428 C 1.698 11.254 1.935 11.155 2.182 11.155 L 2.182 9.905 L 2.182 8.655 C 1.272 8.655 0.399 9.017 -0.245 9.661 L 0.639 10.544 Z M 2.182 9.905 L 2.182 11.155 L 2.28 11.155 L 2.28 9.905 L 2.28 8.655 L 2.182 8.655 L 2.182 9.905 Z M 2.28 9.905 L 2.309 11.155 C 2.921 11.141 3.514 10.943 4.012 10.587 L 3.285 9.57 L 2.558 8.553 C 2.468 8.618 2.361 8.653 2.251 8.656 L 2.28 9.905 Z M 3.285 9.57 L 4.012 10.587 C 4.51 10.231 4.889 9.733 5.1 9.159 L 3.927 8.727 L 2.754 8.296 C 2.716 8.399 2.648 8.489 2.558 8.553 L 3.285 9.57 Z M 3.927 8.727 L 5.071 9.232 C 5.317 8.674 5.39 8.056 5.282 7.456 L 4.052 7.679 L 2.822 7.902 C 2.841 8.011 2.828 8.122 2.784 8.223 L 3.927 8.727 Z M 4.052 7.679 L 5.282 7.456 C 5.173 6.857 4.887 6.303 4.461 5.868 L 3.567 6.742 L 2.674 7.616 C 2.751 7.694 2.802 7.794 2.822 7.902 L 4.052 7.679 Z M 3.567 6.742 L 4.451 5.858 L 4.386 5.792 L 3.502 6.676 L 2.618 7.56 L 2.683 7.626 L 3.567 6.742 Z M 3.502 6.676 L 4.385 5.792 C 4.299 5.705 4.23 5.603 4.183 5.49 L 3.028 5.968 L 1.874 6.447 C 2.046 6.864 2.299 7.242 2.618 7.561 L 3.502 6.676 Z M 3.028 5.968 L 4.183 5.49 C 4.136 5.376 4.112 5.255 4.112 5.133 L 2.862 5.133 L 1.612 5.133 C 1.612 5.584 1.701 6.03 1.874 6.447 L 3.028 5.968 Z M 2.862 5.133 L 4.112 5.133 C 4.112 5.01 4.136 4.889 4.183 4.776 L 3.028 4.297 L 1.874 3.819 C 1.701 4.235 1.612 4.682 1.612 5.133 L 2.862 5.133 Z M 3.028 4.297 L 4.183 4.776 C 4.23 4.663 4.299 4.56 4.385 4.473 L 3.502 3.589 L 2.618 2.705 C 2.299 3.023 2.046 3.402 1.874 3.819 L 3.028 4.297 Z M 3.502 3.589 L 4.386 4.472 C 4.473 4.386 4.576 4.317 4.689 4.27 L 4.21 3.116 L 3.731 1.961 C 3.315 2.133 2.936 2.387 2.617 2.706 L 3.502 3.589 Z M 4.21 3.116 L 4.689 4.27 C 4.802 4.223 4.923 4.199 5.045 4.199 L 5.045 2.949 L 5.045 1.699 C 4.594 1.699 4.148 1.788 3.731 1.961 L 4.21 3.116 Z M 5.045 2.949 L 5.045 4.199 C 5.168 4.199 5.289 4.223 5.402 4.27 L 5.881 3.116 L 6.36 1.961 C 5.943 1.788 5.496 1.699 5.045 1.699 L 5.045 2.949 Z M 5.881 3.116 L 5.402 4.27 C 5.515 4.317 5.618 4.386 5.705 4.472 L 6.589 3.589 L 7.473 2.706 C 7.155 2.387 6.776 2.133 6.36 1.961 L 5.881 3.116 Z M 6.589 3.589 L 5.705 4.473 L 5.771 4.538 L 6.655 3.655 L 7.538 2.771 L 7.473 2.705 L 6.589 3.589 Z M 6.655 3.655 L 5.78 4.548 C 6.216 4.974 6.769 5.26 7.369 5.369 L 7.592 4.139 L 7.815 2.909 C 7.707 2.889 7.607 2.838 7.529 2.761 L 6.655 3.655 Z M 7.592 4.139 L 7.369 5.369 C 7.969 5.478 8.587 5.404 9.145 5.158 L 8.64 4.015 L 8.135 2.871 C 8.035 2.915 7.923 2.929 7.815 2.909 L 7.592 4.139 Z M 8.64 4.015 L 8.64 5.265 L 8.727 5.265 L 8.727 4.015 L 8.727 2.765 L 8.64 2.765 L 8.64 4.015 Z M 8.727 4.015 L 9.22 5.163 C 9.766 4.929 10.233 4.54 10.561 4.044 L 9.519 3.354 L 8.477 2.664 C 8.418 2.753 8.333 2.823 8.235 2.866 L 8.727 4.015 Z M 9.519 3.354 L 10.561 4.044 C 10.89 3.548 11.066 2.967 11.068 2.372 L 9.818 2.367 L 8.568 2.362 C 8.568 2.47 8.536 2.574 8.477 2.664 L 9.519 3.354 Z M 9.818 2.367 L 11.068 2.367 L 11.068 2.182 L 9.818 2.182 L 8.568 2.182 L 8.568 2.367 L 9.818 2.367 Z M 9.818 2.182 L 11.068 2.182 C 11.068 1.935 11.166 1.698 11.341 1.523 L 10.457 0.639 L 9.573 -0.245 C 8.93 0.399 8.568 1.272 8.568 2.182 L 9.818 2.182 Z M 10.457 0.639 L 11.341 1.523 C 11.516 1.348 11.753 1.25 12 1.25 L 12 0 L 12 -1.25 C 11.09 -1.25 10.217 -0.888 9.573 -0.245 L 10.457 0.639 Z M 12 0 L 12 1.25 C 12.247 1.25 12.484 1.348 12.659 1.523 L 13.543 0.639 L 14.427 -0.245 C 13.783 -0.888 12.91 -1.25 12 -1.25 L 12 0 Z M 13.543 0.639 L 12.659 1.523 C 12.834 1.698 12.932 1.935 12.932 2.182 L 14.182 2.182 L 15.432 2.182 C 15.432 1.272 15.07 0.399 14.427 -0.245 L 13.543 0.639 Z M 14.182 2.182 L 12.932 2.182 L 12.932 2.28 L 14.182 2.28 L 15.432 2.28 L 15.432 2.182 L 14.182 2.182 Z M 14.182 2.28 L 12.932 2.285 C 12.934 2.88 13.11 3.461 13.439 3.957 L 14.481 3.267 L 15.523 2.577 C 15.464 2.487 15.432 2.382 15.432 2.275 L 14.182 2.28 Z M 14.481 3.267 L 13.439 3.957 C 13.767 4.453 14.234 4.842 14.78 5.076 L 15.273 3.927 L 15.765 2.778 C 15.667 2.736 15.582 2.666 15.523 2.577 L 14.481 3.267 Z M 15.273 3.927 L 14.768 5.071 C 15.326 5.317 15.944 5.39 16.544 5.282 L 16.321 4.052 L 16.098 2.822 C 15.989 2.841 15.878 2.828 15.777 2.784 L 15.273 3.927 Z M 16.321 4.052 L 16.544 5.282 C 17.143 5.173 17.697 4.887 18.132 4.461 L 17.258 3.567 L 16.384 2.674 C 16.306 2.751 16.206 2.802 16.098 2.822 L 16.321 4.052 Z M 17.258 3.567 L 18.142 4.451 L 18.208 4.386 L 17.324 3.502 L 16.44 2.618 L 16.374 2.683 L 17.258 3.567 Z M 17.324 3.502 L 18.208 4.385 C 18.295 4.299 18.397 4.23 18.51 4.183 L 18.032 3.028 L 17.553 1.874 C 17.136 2.046 16.758 2.299 16.439 2.618 L 17.324 3.502 Z M 18.032 3.028 L 18.51 4.183 C 18.624 4.136 18.745 4.112 18.867 4.112 L 18.867 2.862 L 18.867 1.612 C 18.416 1.612 17.97 1.701 17.553 1.874 L 18.032 3.028 Z M 18.867 2.862 L 18.867 4.112 C 18.99 4.112 19.111 4.136 19.224 4.183 L 19.703 3.028 L 20.181 1.874 C 19.765 1.701 19.318 1.612 18.867 1.612 L 18.867 2.862 Z M 19.703 3.028 L 19.224 4.183 C 19.337 4.23 19.44 4.299 19.527 4.385 L 20.411 3.502 L 21.295 2.618 C 20.977 2.299 20.598 2.046 20.181 1.874 L 19.703 3.028 Z M 20.411 3.502 L 19.528 4.386 C 19.614 4.473 19.683 4.576 19.73 4.689 L 20.884 4.21 L 22.039 3.731 C 21.867 3.315 21.613 2.936 21.294 2.617 L 20.411 3.502 Z M 20.884 4.21 L 19.73 4.689 C 19.777 4.802 19.801 4.923 19.801 5.045 L 21.051 5.045 L 22.301 5.045 C 22.301 4.594 22.212 4.148 22.039 3.731 L 20.884 4.21 Z M 21.051 5.045 L 19.801 5.045 C 19.801 5.168 19.777 5.289 19.73 5.402 L 20.884 5.881 L 22.039 6.36 C 22.212 5.943 22.301 5.496 22.301 5.045 L 21.051 5.045 Z M 20.884 5.881 L 19.73 5.402 C 19.683 5.515 19.614 5.618 19.528 5.705 L 20.411 6.589 L 21.294 7.473 C 21.613 7.155 21.867 6.776 22.039 6.36 L 20.884 5.881 Z M 20.411 6.589 L 19.527 5.705 L 19.462 5.771 L 20.345 6.655 L 21.229 7.538 L 21.295 7.473 L 20.411 6.589 Z M 20.345 6.655 L 19.452 5.78 C 19.026 6.216 18.74 6.769 18.631 7.369 L 19.861 7.592 L 21.091 7.815 C 21.111 7.707 21.162 7.607 21.239 7.529 L 20.345 6.655 Z M 19.861 7.592 L 18.631 7.369 C 18.522 7.969 18.596 8.587 18.842 9.145 L 19.985 8.64 L 21.129 8.135 C 21.085 8.035 21.071 7.923 21.091 7.815 L 19.861 7.592 Z M 19.985 8.64 L 18.735 8.64 L 18.735 8.727 L 19.985 8.727 L 21.235 8.727 L 21.235 8.64 L 19.985 8.64 Z M 19.985 8.727 L 18.837 9.22 C 19.071 9.766 19.46 10.233 19.956 10.561 L 20.646 9.519 L 21.336 8.477 C 21.247 8.418 21.177 8.333 21.134 8.235 L 19.985 8.727 Z M 20.646 9.519 L 19.956 10.561 C 20.452 10.89 21.033 11.066 21.628 11.068 L 21.633 9.818 L 21.638 8.568 C 21.53 8.568 21.426 8.536 21.336 8.477 L 20.646 9.519 Z M 21.633 9.818 L 21.633 11.068 L 21.818 11.068 L 21.818 9.818 L 21.818 8.568 L 21.633 8.568 L 21.633 9.818 Z M 21.818 9.818 L 21.818 11.068 C 22.065 11.068 22.302 11.166 22.477 11.341 L 23.361 10.457 L 24.245 9.573 C 23.601 8.93 22.728 8.568 21.818 8.568 L 21.818 9.818 Z M 23.361 10.457 L 22.477 11.341 C 22.652 11.516 22.75 11.753 22.75 12 L 24 12 L 25.25 12 C 25.25 11.09 24.888 10.217 24.245 9.573 L 23.361 10.457 Z M 24 12 L 22.75 12 C 22.75 12.247 22.652 12.484 22.477 12.659 L 23.361 13.543 L 24.245 14.427 C 24.888 13.783 25.25 12.91 25.25 12 L 24 12 Z M 23.361 13.543 L 22.477 12.659 C 22.302 12.834 22.065 12.932 21.818 12.932 L 21.818 14.182 L 21.818 15.432 C 22.728 15.432 23.601 15.07 24.245 14.427 L 23.361 13.543 Z M 21.818 14.182 L 21.818 12.932 L 21.72 12.932 L 21.72 14.182 L 21.72 15.432 L 21.818 15.432 L 21.818 14.182 Z M 21.72 14.182 L 21.715 12.932 C 21.12 12.934 20.539 13.11 20.043 13.439 L 20.733 14.481 L 21.423 15.523 C 21.513 15.464 21.618 15.432 21.725 15.432 L 21.72 14.182 Z M 20.733 14.481 L 20.043 13.439 C 19.547 13.767 19.158 14.234 18.924 14.78 L 20.073 15.273 L 21.222 15.765 C 21.264 15.667 21.334 15.582 21.423 15.523 L 20.733 14.481 Z" fill="currentColor" fill-rule="nonzero"></path>
</svg>