<svg xmlns="http://www.w3.org/2000/svg" width="58" height="59" viewBox="0 0 58 59" fill="none"><path d="M21.5151 34.7106C24.034 38.0885 28.7785 39.6711 31.4292 36.8302C32.8775 35.278 31.6329 33.0323 32.9727 31.3714C34.0492 30.0368 35.5355 30.4148 36.6453 29.1074C38.0879 27.4082 36.9607 24.0723 34.9984 22.0877C31.8835 18.9374 26.8198 19.5829 23.5752 22.4856C20.2342 25.4746 18.593 30.792 21.5151 34.7106Z" fill="#FFD15B"></path><ellipse cx="25.0305" cy="33.1452" rx="1.66912" ry="1.71458" fill="#E03C50"></ellipse><ellipse cx="23.6945" cy="28.8591" rx="1.66912" ry="1.71458" fill="#FF8F0D"></ellipse><ellipse cx="26.5324" cy="24.9153" rx="1.66912" ry="1.71458" fill="#23BF62"></ellipse><ellipse cx="30.8722" cy="23.5437" rx="1.66912" ry="1.71458" fill="#4EBFFF"></ellipse><path d="M32.2168 30.8149L34.0633 30.0179L36.7803 36.6599C36.9906 37.1739 36.7477 37.7691 36.2378 37.9892C35.7279 38.2093 35.1441 37.971 34.9338 37.4569L32.2168 30.8149Z" fill="#FF8F0D"></path><path d="M31.4465 26.4978L34.0069 29.0675C34.7622 29.8256 34.505 31.129 33.5156 31.5561C32.5263 31.9831 31.4399 31.2597 31.4414 30.1748L31.4465 26.4978Z" fill="#E03C50"></path></svg>