<svg xmlns="http://www.w3.org/2000/svg" width="64" height="62" viewBox="0 0 64 62" fill="none"><path d="M31.6504 26.4189C34.0361 26.4189 36.0673 27.4233 37.7363 28.79C39.4142 30.1639 40.6335 31.832 41.334 32.9424C41.4563 33.1363 41.4555 33.3508 41.3438 33.5361C39.9302 35.8791 36.6774 40.0107 31.6504 40.0107C26.6234 40.0107 23.3705 35.8791 21.957 33.5361C21.8453 33.3508 21.8445 33.1363 21.9668 32.9424C22.6673 31.832 23.8866 30.1639 25.5645 28.79C27.2335 27.4233 29.2647 26.4189 31.6504 26.4189Z" fill="#E1E4FF" stroke="#6B78EE" stroke-width="3.75"></path><ellipse cx="31.6501" cy="33.2148" rx="4.95866" ry="5.0244" fill="#493FBB"></ellipse><ellipse cx="31.6506" cy="33.215" rx="2.72096" ry="2.75703" fill="#493FBB"></ellipse><path d="M23.0273 24.9238L24.8948 27.4961" stroke="#6B78EE" stroke-width="3.75" stroke-linecap="round"></path><path d="M39.9922 24.9238L38.1247 27.4961" stroke="#6B78EE" stroke-width="3.75" stroke-linecap="round"></path><path d="M31.3809 21.8857L31.4357 24.924" stroke="#6B78EE" stroke-width="3.75" stroke-linecap="round"></path></svg>