<svg xmlns="http://www.w3.org/2000/svg" width="68" height="69" viewBox="0 0 68 69" fill="none"><path d="M46.4199 27.9338H39.6354C34.9879 27.8204 33.9444 30.0801 33.9444 30.0801C33.9444 30.0801 32.9009 27.8204 28.2534 27.9338H21.2996C20.984 27.9339 20.6814 28.0671 20.4583 28.3042C20.2352 28.5413 20.1099 28.8629 20.1099 29.1982C20.1099 31.6248 20.0384 39.7313 20.0001 43.8971C19.9873 45.2871 21.11 46.4157 22.5001 46.4157C24.5451 46.4157 27.2463 46.4157 28.2534 46.4157C30.3879 46.4157 31.8196 47.0894 32.7244 47.776C33.1022 48.0594 33.5548 48.2086 34.0173 48.2022C34.4798 48.1958 34.9286 48.0342 35.2994 47.7404C36.1619 47.0662 37.5374 46.4157 39.6349 46.4157C40.6125 46.4157 43.1568 46.4157 45.111 46.4157C46.4917 46.4157 47.6099 45.3019 47.6099 43.9211C47.6099 39.7626 47.6099 31.6293 47.6099 29.1982C47.6099 29.0322 47.5791 28.8677 47.5193 28.7143C47.4595 28.5609 47.3718 28.4216 47.2613 28.3041C47.1508 28.1867 47.0196 28.0936 46.8753 28.0301C46.7309 27.9665 46.5761 27.9338 46.4199 27.9338Z" fill="#C65EE0"></path><path d="M33.9435 28.6848C33.9435 28.6848 33.0338 26.6519 28.9821 26.7537H24.0999C23.8248 26.7537 23.5609 26.8735 23.3664 27.0869C23.1718 27.3002 23.0625 27.5895 23.0625 27.8912V42.2432C23.0625 42.5449 23.1718 42.8342 23.3664 43.0475C23.5609 43.2609 23.8248 43.3807 24.0999 43.3807H28.9821C32.7792 43.3807 33.9435 45.3115 33.9435 45.3115V28.6848Z" fill="#A8E5FF"></path><path d="M33.9453 28.6848C33.9453 28.6848 34.8459 26.6519 38.8568 26.7537H43.6898C43.9622 26.7537 44.2234 26.8735 44.416 27.0869C44.6086 27.3002 44.7168 27.5895 44.7168 27.8912V42.2432C44.7168 42.5449 44.6086 42.8342 44.416 43.0475C44.2234 43.2609 43.9622 43.3807 43.6898 43.3807H38.8568C35.0979 43.3807 33.9453 45.3115 33.9453 45.3115V28.6848Z" fill="#A8E5FF"></path><path d="M31.892 26.7663L34.3024 25.6929C34.4357 25.6333 34.5489 25.5364 34.6283 25.4139C34.7077 25.2913 34.75 25.1485 34.75 25.0024C34.75 24.8564 34.7077 24.7136 34.6283 24.591C34.5489 24.4685 34.4357 24.3716 34.3024 24.312L31.892 23.2386C31.7237 23.1589 31.5889 23.0224 31.5114 22.8531L30.438 20.4476C30.3784 20.3143 30.2815 20.2011 30.159 20.1217C30.0365 20.0423 29.8936 20 29.7476 20C29.6016 20 29.4587 20.0423 29.3361 20.1217C29.2136 20.2011 29.1167 20.3143 29.0571 20.4476L27.9837 22.8531C27.9076 23.0234 27.7724 23.1603 27.6031 23.2386L25.1976 24.312C25.0643 24.3716 24.9511 24.4685 24.8717 24.591C24.7923 24.7136 24.75 24.8564 24.75 25.0024C24.75 25.1485 24.7923 25.2913 24.8717 25.4139C24.9511 25.5364 25.0643 25.6333 25.1976 25.6929L27.6031 26.7663C27.7731 26.841 27.909 26.9769 27.9837 27.1469L29.0571 29.5524C29.1167 29.6857 29.2136 29.7989 29.3361 29.8783C29.4587 29.9577 29.6016 30 29.7476 30C29.8936 30 30.0365 29.9577 30.159 29.8783C30.2815 29.7989 30.3784 29.6857 30.438 29.5524L31.5114 27.1469C31.5877 26.9779 31.7231 26.8426 31.892 26.7663Z" fill="#FF8F0D"></path><path d="M40.7494 34.7364L42.4367 33.985C42.53 33.9433 42.6092 33.8755 42.6648 33.7897C42.7204 33.7039 42.75 33.6039 42.75 33.5017C42.75 33.3995 42.7204 33.2995 42.6648 33.2137C42.6092 33.128 42.53 33.0601 42.4367 33.0184L40.7494 32.267C40.6316 32.2112 40.5373 32.1157 40.483 31.9972L39.7316 30.3133C39.6899 30.22 39.622 30.1408 39.5363 30.0852C39.4505 30.0296 39.3505 30 39.2483 30C39.1461 30 39.0461 30.0296 38.9603 30.0852C38.8745 30.1408 38.8067 30.22 38.765 30.3133L38.0136 31.9972C37.9603 32.1164 37.8657 32.2122 37.7472 32.267L36.0633 33.0184C35.97 33.0601 35.8908 33.128 35.8352 33.2137C35.7796 33.2995 35.75 33.3995 35.75 33.5017C35.75 33.6039 35.7796 33.7039 35.8352 33.7897C35.8908 33.8755 35.97 33.9433 36.0633 33.985L37.7472 34.7364C37.8662 34.7887 37.9613 34.8838 38.0136 35.0028L38.765 36.6867C38.8067 36.78 38.8745 36.8592 38.9603 36.9148C39.0461 36.9704 39.1461 37 39.2483 37C39.3505 37 39.4505 36.9704 39.5363 36.9148C39.622 36.8592 39.6899 36.78 39.7316 36.6867L40.483 35.0028C40.5364 34.8845 40.6311 34.7898 40.7494 34.7364Z" fill="#FF8F0D"></path><path d="M30.821 39.3832L32.0262 38.8464C32.0928 38.8166 32.1494 38.7682 32.1892 38.7069C32.2289 38.6457 32.25 38.5742 32.25 38.5012C32.25 38.4282 32.2289 38.3568 32.1892 38.2955C32.1494 38.2343 32.0928 38.1858 32.0262 38.156L30.821 37.6193C30.7369 37.5795 30.6695 37.5112 30.6307 37.4266L30.094 36.2238C30.0642 36.1572 30.0157 36.1006 29.9545 36.0609C29.8932 36.0211 29.8218 36 29.7488 36C29.6758 36 29.6043 36.0211 29.5431 36.0609C29.4818 36.1006 29.4334 36.1572 29.4036 36.2238L28.8668 37.4266C28.8288 37.5117 28.7612 37.5802 28.6765 37.6193L27.4738 38.156C27.4072 38.1858 27.3506 38.2343 27.3108 38.2955C27.2711 38.3568 27.25 38.4282 27.25 38.5012C27.25 38.5742 27.2711 38.6457 27.3108 38.7069C27.3506 38.7682 27.4072 38.8166 27.4738 38.8464L28.6765 39.3832C28.7616 39.4205 28.8295 39.4884 28.8668 39.5735L29.4036 40.7762C29.4334 40.8428 29.4818 40.8994 29.5431 40.9392C29.6043 40.9789 29.6758 41 29.7488 41C29.8218 41 29.8932 40.9789 29.9545 40.9392C30.0157 40.8994 30.0642 40.8428 30.094 40.7762L30.6307 39.5735C30.6689 39.489 30.7365 39.4213 30.821 39.3832Z" fill="#FF8F0D"></path></svg>