<svg width="162" height="160" viewBox="0 0 162 160" fill="none" xmlns="http://www.w3.org/2000/svg">
    <g opacity="0.29">
        <g opacity="0.29">
            <path opacity="0.29" d="M107.184 15.5417C107.002 12.1591 105.357 9.94861 103.493 10.4996C102.807 10.7024 102.893 12.6368 103.579 12.4341C104.859 12.0559 105.997 13.6762 106.12 15.9713C106.187 17.2085 107.251 16.7861 107.184 15.5417Z" fill="#EFC32E"/>
        </g>
        <g opacity="0.29">
            <path opacity="0.29" d="M90.2295 4.78624C89.3072 3.34785 88.0078 2.89245 86.7232 3.55626C86.0479 3.90526 86.1284 5.83092 86.8104 5.4785C87.8364 4.94828 88.7927 5.285 89.529 6.4333C90.0181 7.19607 90.7152 5.54375 90.2295 4.78624Z" fill="#95C4E2"/>
        </g>
        <g opacity="0.29">
            <path opacity="0.29" d="M118.154 13.5888C117.14 14.2196 116.509 15.2916 116.425 16.4546C116.378 17.1103 117.426 17.2129 117.474 16.5545C117.54 15.6334 118.026 14.875 118.823 14.3795C119.393 14.0247 118.719 13.2374 118.154 13.5888Z" fill="#95C4E2"/>
        </g>
        <g opacity="0.29">
            <path opacity="0.29" d="M10.4447 1.72683C8.45154 1.36803 6.67542 3.18029 6.7926 5.14998C6.84389 6.01207 8.15744 5.7736 8.10639 4.91556C8.03717 3.75213 9.24655 2.87559 10.3094 3.06692C11.1522 3.21864 11.283 1.87773 10.4447 1.72683Z" fill="#85AE4E"/>
        </g>
        <g opacity="0.29">
            <path opacity="0.29" d="M138.766 8.21771C137.551 9.71284 135.952 10.3576 134.499 9.84612C133.856 9.61962 133.42 11.1002 134.068 11.3284C135.886 11.9686 137.857 11.2877 139.395 9.39482C139.942 8.7222 139.313 7.54439 138.766 8.21771Z" fill="#85AE4E"/>
        </g>
        <g opacity="0.29">
            <path opacity="0.29" d="M56.2171 2.49241C55.482 3.95498 52.9724 3.69573 50.8798 2.03015C50.1685 1.46402 49.8486 2.27712 50.5596 2.84305C53.2774 5.00623 56.4083 5.18801 57.3429 3.32857C57.5897 2.83738 56.4639 2.00143 56.2171 2.49241Z" fill="#DE5866"/>
        </g>
        <g opacity="0.29">
            <path opacity="0.29" d="M43.6705 10.7689C41.9799 12.7856 42.2444 14.9008 43.9579 15.0201C44.7619 15.0762 45.5363 13.5795 44.7353 13.5237C43.7624 13.4559 43.8852 12.1432 44.7477 11.1144C45.5108 10.2041 44.4309 9.86194 43.6705 10.7689Z" fill="#DE5866"/>
        </g>
        <g opacity="0.29">
            <path opacity="0.29" d="M13.6862 37.4587C15.7059 37.3428 16.8479 36.0402 16.6377 34.0105C16.5517 33.1805 14.9912 32.4961 15.0777 33.3309C15.2399 34.8979 14.4112 35.9246 12.8411 36.0148C12.0106 36.0625 12.855 37.5065 13.6862 37.4587Z" fill="#DE5866"/>
        </g>
        <g opacity="0.29">
            <path opacity="0.29" d="M161.389 0.451608C161.054 -0.204943 159.132 -0.120466 159.47 0.541951C160.301 2.17244 160.065 3.83456 158.67 5.2102C158.114 5.75827 159.751 6.43857 160.312 5.88567C161.942 4.27852 162.369 2.37439 161.389 0.451608Z" fill="#EFC32E"/>
        </g>
        <g opacity="0.29">
            <path opacity="0.29" d="M72.7004 5.33997C72.7617 4.73371 72.3007 4.19356 71.6708 4.13351C71.041 4.07346 70.4807 4.51624 70.4195 5.12249C70.3582 5.72875 70.8192 6.2689 71.4491 6.32895C72.0789 6.38901 72.6392 5.94622 72.7004 5.33997Z" fill="#EFC32E"/>
        </g>
        <g opacity="0.29">
            <path opacity="0.29" d="M158.999 30.3113C159.515 29.8165 159.48 28.9696 158.921 28.4196C158.361 27.8697 157.49 27.8251 156.975 28.3199C156.459 28.8147 156.494 29.6616 157.053 30.2115C157.613 30.7615 158.484 30.8061 158.999 30.3113Z" fill="#EFC32E"/>
        </g>
    </g>
    <path d="M16.1234 146.822C-13.6189 136.437 5.77191 111.307 11.6419 113.666C4.72435 107.246 2.79424 96.8061 6.53151 89.1318C10.7923 80.3823 20.3038 79.5718 20.9044 79.5315C11.0368 67.9444 10.288 50.8239 18.0299 40.0637C23.8789 31.9343 35.4735 30.3408 45.419 32.509C46.2702 30.81 53.1931 12.5825 70.7306 10.1962C90.3201 7.53075 102.693 24.6045 103.309 25.4856C111.972 16.8992 124.999 16.4896 133.971 24.4189C142.72 32.1505 145.437 45.8863 140.359 57.1309C142.527 58.6265 150.875 64.7766 154.093 77.0425C158.169 92.5728 150.683 105.187 149.622 106.91C170.921 111.274 155.244 149.018 139.969 146.822C115.175 146.881 16.6025 146.822 16.1234 146.822Z" fill="#83DEFA"/>
    <path opacity="0.46" d="M34.2334 148.159C-0.0213402 128.016 22.5146 98.8227 37.2499 100.489C35.9033 89.032 40.3399 78.0038 48.0722 73.0968C57.2181 67.2926 66.4383 72.9311 67.3495 73.5118C77.8714 58.7503 93.6145 53.8444 105.566 60.6457C115.426 66.2569 119.395 77.9531 120.447 81.3975C128.764 73.4611 140.1 74.5336 146.15 82.2275C153.292 91.3124 152.42 108.81 142.091 117.921C147.909 121.3 151.041 128.879 149.87 135.767C148.459 144.062 141.036 150.018 133.298 147.803C98.0128 148.218 69.5186 147.744 34.2334 148.159Z" fill="#E0F5FB"/>
    <path d="M145.106 146.606C145.684 146.18 146.257 145.754 146.823 145.329C146.476 145.104 145.351 144.437 143.792 144.544C142.437 144.637 141.511 145.264 141.165 145.526C141.391 144.746 141.594 143.786 141.67 142.679C141.717 141.997 141.709 141.371 141.67 140.814C141.598 140.802 140.431 140.636 139.649 141.501C138.982 142.24 139.123 143.147 139.144 143.268C138.645 142.914 137.679 142.327 136.315 142.09C134.685 141.806 133.375 142.176 132.779 142.384C132.498 141.762 132.165 141.103 131.768 140.421C131.568 140.077 131.365 139.749 131.162 139.44C130.885 139.554 130.205 139.879 129.748 140.618C129.001 141.821 129.479 143.098 129.546 143.268C129.169 142.651 128.646 141.929 127.929 141.206C127.549 140.824 127.172 140.499 126.817 140.225C126.668 140.534 126.485 141.003 126.413 141.599C126.333 142.268 126.426 142.82 126.514 143.17C124.477 142.902 122.173 142.709 119.644 142.679C116.873 142.646 114.362 142.814 112.167 143.072C112.209 142.838 112.458 141.327 111.398 140.105C110.811 139.43 110.095 139.155 109.742 139.047C109.434 139.327 109.003 139.792 108.683 140.469C108.131 141.637 108.249 142.717 108.327 143.17C108.272 142.999 107.813 141.662 106.342 141.106C104.893 140.558 103.642 141.215 103.477 141.305C103.457 141.637 103.464 142.032 103.534 142.47C103.689 143.446 104.085 144.185 104.387 144.642C104.387 144.642 101.095 144.134 97.5153 143.341C93.599 144.349 89.566 145.138 86.3123 142.832C86.3989 142.985 86.507 143.163 86.6257 143.354C86.092 143.06 85.3698 142.753 84.4711 142.596C82.8407 142.312 81.5305 142.682 80.9346 142.891C80.6538 142.269 80.3207 141.609 79.9243 140.927C79.724 140.583 79.521 140.256 79.318 139.946C79.0414 140.06 78.3614 140.386 77.9034 141.124C77.1571 142.327 77.6346 143.604 77.7014 143.774C77.3245 143.157 76.8023 142.435 76.0847 141.713C75.7048 141.33 75.3278 141.005 74.9734 140.731C74.8237 141.04 74.6408 141.509 74.5692 142.105C74.4888 142.774 74.582 143.326 74.6702 143.676C72.6332 143.408 70.3287 143.216 67.7994 143.185C65.0289 143.152 62.5175 143.32 60.3225 143.578C60.3651 143.344 60.6144 141.833 59.5536 140.612C58.9669 139.936 58.2505 139.661 57.8975 139.553C57.5895 139.833 57.1585 140.298 56.8386 140.975C56.2865 142.144 56.4052 143.223 56.483 143.676C56.4279 143.506 55.9694 142.168 54.4981 141.612C53.0485 141.064 51.7976 141.721 51.6331 141.811C51.613 142.143 51.6197 142.538 51.6895 142.976C51.8448 143.952 52.2412 144.692 52.5424 145.148C52.5424 145.148 47.0506 144.3 42.5395 143.087C35.0249 141.066 34.3695 143.158 34.3695 143.158C34.5373 143.484 34.8857 144.028 35.2155 144.55C35.0811 144.757 34.948 144.977 34.8229 145.227C34.6529 145.566 34.5261 145.888 34.4282 146.183C34.3352 146.249 34.2499 146.315 34.1756 146.381C33.8404 146.017 33.2608 145.491 32.3979 145.126C31.5142 144.751 30.7259 144.711 30.2761 144.721C30.4108 145.261 30.5456 145.8 30.6803 146.34C28.4029 145.349 21.1296 142.52 15.2212 145.935C14.653 146.263 14.0754 146.662 13.5036 147.149C14.3456 147.317 15.1875 147.486 16.0295 147.655C15.359 148.153 14.6854 148.659 14.0087 149.172C13.4302 149.611 12.8576 150.05 12.291 150.487C12.6381 150.719 13.7633 151.407 15.3223 151.296C16.6776 151.2 17.6032 150.554 17.9493 150.285C17.7238 151.088 17.5206 152.077 17.4441 153.219C17.3969 153.921 17.4057 154.567 17.4441 155.141C17.5165 155.153 18.6831 155.324 19.4649 154.432C20.1328 153.671 19.9912 152.737 19.9701 152.612C20.4691 152.976 21.4357 153.581 22.7992 153.826C24.4295 154.118 25.7398 153.737 26.3356 153.522C26.6164 154.163 28.2818 155.156 28.4847 155.475C29.5373 154.701 29.8057 152.643 29.5688 152.612C29.9457 153.247 30.468 153.991 31.1855 154.736C31.5654 155.13 31.9424 155.465 32.2969 155.748C32.4466 155.429 32.6295 154.945 32.7011 154.331C32.7814 153.642 32.6883 153.073 32.6 152.713C34.637 152.989 36.9415 153.187 39.4707 153.219C40.8561 153.236 42.1765 153.201 43.425 153.129C44.7345 153.053 45.9164 152.939 46.9477 152.814C46.917 153.229 46.9291 153.87 47.197 154.583C47.7511 156.059 48.9955 156.765 49.3726 156.961C49.73 156.192 50.0815 155.306 50.3801 154.311C50.5474 153.752 50.6808 153.218 50.7872 152.713C51.2515 153.093 51.9244 153.563 52.8142 153.947C53.9375 154.432 54.9528 154.585 55.6371 154.635C55.5897 154.15 55.502 153.601 55.3539 153.011C62.512 154.319 78.0774 154.582 96.0386 153.258C116.017 151.784 133.733 155.476 138.867 151.265C140.558 151.105 142.276 150.654 143.893 149.747C144.461 149.428 145.039 149.041 145.611 148.569C144.769 148.405 143.927 148.242 143.085 148.078C143.755 147.595 144.429 147.104 145.106 146.606Z" fill="#CFAA3F"/>
    <path d="M64.126 153.061C64.1244 153.005 64.1236 152.978 64.122 152.923C64.227 152.837 64.3193 152.775 64.4243 152.689C63.3895 152.675 62.4812 152.387 61.7256 151.805L61.3771 152.302C62.1303 152.801 63.0505 153.037 64.126 153.061Z" fill="#55392E"/>
    <path d="M68.7596 154.531C68.5079 150.563 66.4577 150.026 62.6206 152.871C62.5185 152.954 62.4288 153.014 62.339 153.073L68.7596 154.531Z" fill="#899B72"/>
    <path d="M62.7184 152.785C63.0213 156.733 65.1574 157.157 69.1403 154.085C69.1403 154.085 69.1272 154.082 69.1396 154.059L62.7271 152.629C62.7031 152.703 62.7169 152.732 62.7184 152.785Z" fill="#A8B264"/>
    <path d="M21.9245 11.9039C22.2955 13.0837 22.9677 14.1131 23.9867 15.02L24.028 14.9956L24.0809 14.8547C23.1032 13.9234 22.5466 12.8532 22.3987 11.624C22.3551 11.2383 22.3652 10.8483 22.396 10.4462C22.4033 10.2773 22.4437 10.1163 22.4841 9.95525L21.7019 9.9234C21.6777 10.02 21.6534 10.1166 21.6498 10.2011C21.6906 10.8078 21.7807 11.3581 21.9245 11.9039Z" fill="#8B806E"/>
    <path d="M28.5358 16.694C28.6394 16.0021 28.7017 15.3344 28.7514 14.6468C28.8166 13.758 28.6586 12.9188 28.2649 12.1089C28.1477 11.8764 28.0305 11.6439 27.8595 11.4157C27.4549 10.8592 26.9319 10.5646 26.2859 10.4798C26.0995 10.4527 25.8926 10.4377 25.6856 10.4228C25.363 10.4487 25.0449 10.5268 24.6936 10.5971C24.4911 10.6344 24.293 10.7239 24.0662 10.8578C23.8394 10.9917 23.7076 11.097 23.6583 11.1535C23.609 11.2101 23.436 11.3397 23.1643 11.5824C22.8927 11.8251 22.7079 12.0713 22.5975 12.301C22.4997 12.5508 22.4342 12.6717 22.4261 12.7039L22.3732 12.8449C24.6477 14.7659 26.7095 17.1142 28.5793 19.8775C28.4532 19.5406 28.414 19.2071 28.3954 18.8615C28.3914 18.1782 28.4493 17.4583 28.5358 16.694Z" fill="#E1C944"/>
    <path d="M19.7187 17.3174C19.844 17.5177 19.9899 17.7058 20.1439 17.8618C20.3436 18.0456 20.5432 18.2294 20.751 18.381C21.154 18.6642 21.5938 18.8708 22.0784 18.9686C22.6876 19.1301 23.2798 19.2192 23.9213 19.2519C24.4096 19.2653 24.8773 19.2908 25.3531 19.2842C26.1022 19.3082 26.8556 19.3844 27.5804 19.505C27.9325 19.5714 28.2765 19.67 28.5918 19.813C26.722 17.0496 24.6395 14.7136 22.3857 12.7804C22.3857 12.7804 22.3982 12.8004 22.3776 12.8126C22.3776 12.8126 22.365 12.7926 22.3444 12.8047C21.6212 12.9575 21.1257 13.113 20.8164 13.2956C20.5197 13.4982 20.2687 13.7287 20.0964 13.995C19.9242 14.2612 19.7888 14.4509 19.6821 14.5962C19.5959 14.7293 19.4819 15.0435 19.3319 15.5709C19.2401 16.1463 19.3428 16.7165 19.7187 17.3174Z" fill="#CFB53A"/>
    <path d="M132.534 151.486C132.818 152.39 133.333 153.179 134.114 153.874L134.146 153.856L134.187 153.748C133.437 153.034 133.011 152.213 132.897 151.271C132.864 150.975 132.872 150.677 132.895 150.368C132.901 150.239 132.932 150.115 132.963 149.992L132.363 149.968C132.345 150.042 132.326 150.116 132.323 150.18C132.354 150.646 132.423 151.067 132.534 151.486Z" fill="#8B806E"/>
    <path d="M137.603 155.157C137.682 154.626 137.73 154.115 137.768 153.588C137.818 152.906 137.697 152.263 137.395 151.642C137.306 151.464 137.216 151.286 137.085 151.111C136.775 150.684 136.374 150.458 135.879 150.393C135.736 150.373 135.577 150.361 135.418 150.35C135.171 150.37 134.927 150.429 134.658 150.483C134.503 150.512 134.351 150.581 134.177 150.683C134.003 150.786 133.902 150.867 133.864 150.91C133.827 150.953 133.694 151.053 133.486 151.239C133.277 151.425 133.136 151.613 133.051 151.789C132.976 151.981 132.926 152.074 132.92 152.098L132.879 152.206C134.623 153.679 136.203 155.479 137.636 157.597C137.54 157.339 137.51 157.083 137.496 156.818C137.492 156.294 137.537 155.743 137.603 155.157Z" fill="#E1C944"/>
    <path d="M130.841 155.639C130.937 155.792 131.049 155.937 131.167 156.056C131.32 156.197 131.473 156.338 131.632 156.454C131.941 156.671 132.278 156.83 132.65 156.904C133.117 157.028 133.571 157.097 134.063 157.122C134.437 157.132 134.795 157.151 135.16 157.146C135.734 157.165 136.312 157.223 136.867 157.316C137.137 157.367 137.401 157.442 137.643 157.552C136.209 155.434 134.613 153.643 132.885 152.161C132.885 152.161 132.895 152.176 132.879 152.186C132.879 152.186 132.87 152.17 132.854 152.18C132.299 152.297 131.92 152.416 131.683 152.556C131.455 152.711 131.263 152.888 131.131 153.092C130.999 153.296 130.895 153.442 130.813 153.553C130.747 153.655 130.66 153.896 130.545 154.3C130.474 154.741 130.553 155.178 130.841 155.639Z" fill="#CFB53A"/>
    <path d="M46.3975 25.7777C46.4225 25.7847 46.4481 25.8076 46.4731 25.8146C46.4823 25.8382 46.4994 25.8535 46.5001 25.8695L49.9944 22.55L49.4388 22.0529L46.3975 25.7777Z" fill="#F1D43F"/>
    <path d="M33.187 26.2733C33.1792 26.2816 33.1792 26.2816 33.187 26.2733C33.0827 26.3334 32.9869 26.4011 32.8904 26.4529C33.6754 27.1246 34.688 28.1228 35.9368 29.4551C37.6284 28.6205 39.1313 28.185 40.4456 28.1485C40.5113 28.1458 40.5934 28.1426 40.6676 28.1476L40.6755 28.1393C40.8482 28.1404 41.0216 28.1574 41.195 28.1744C39.947 29.191 38.2061 30.0276 35.9566 30.7007C35.987 30.8353 36.001 30.9706 36.0228 31.0975C36.032 31.1211 36.0248 31.1454 36.034 31.169C36.046 31.2564 36.0664 31.3514 36.0784 31.4388C36.1175 31.7808 36.1481 32.1152 36.1623 32.4502C36.1643 32.498 36.167 32.5618 36.1769 32.6014C36.1776 32.6173 36.1789 32.6492 36.1796 32.6652C36.2536 34.2202 36.0636 35.7538 35.6424 37.2647C35.6588 37.264 35.6746 37.2474 35.691 37.2467C35.7882 37.2109 35.8774 37.1834 35.9746 37.1475C35.991 37.1469 35.9989 37.1386 36.0068 37.1303C36.2582 37.0483 36.5097 36.9663 36.7704 36.908C36.8275 36.8977 36.8925 36.8792 36.9496 36.8689C37.2018 36.8029 37.4625 36.7445 37.7153 36.6945C37.756 36.6849 37.7967 36.6752 37.8459 36.6733C38.0581 36.6328 38.2702 36.5924 38.4823 36.552C38.523 36.5424 38.5558 36.5411 38.6051 36.5391C38.6379 36.5378 38.6543 36.5371 38.6872 36.5358C38.7036 36.5351 38.7114 36.5268 38.72 36.5345C38.7693 36.5325 38.8178 36.5146 38.875 36.5043L38.8914 36.5037C39.554 36.4213 40.2265 36.3784 40.9089 36.3751C40.9503 36.3815 40.9832 36.3802 41.0324 36.3782C41.0653 36.3769 41.0981 36.3756 41.1309 36.3743C41.1887 36.3799 41.2544 36.3773 41.3122 36.383C41.3779 36.3804 41.4357 36.386 41.5014 36.3834C41.5342 36.3821 41.5592 36.3891 41.5835 36.3801C41.6321 36.3622 41.6735 36.3686 41.7155 36.3908C41.7733 36.3965 41.8311 36.4022 41.8883 36.3919C42.0531 36.4013 42.2101 36.419 42.375 36.4284C42.8461 34.3483 43.499 32.6763 44.3501 31.412C44.4045 31.3379 44.4511 31.2721 44.4977 31.2063C44.5134 31.1897 44.5291 31.1731 44.5363 31.1489C44.537 31.1648 44.5462 31.1884 44.5469 31.2044C44.5714 31.3951 44.596 31.5859 44.6126 31.785C44.6837 33.0765 44.3695 34.591 43.6372 36.33L46.8681 39.221L49.3793 35.4055C47.9296 34.1851 47.0911 32.6367 46.8465 30.745C47.3605 31.036 47.8036 31.4018 48.1765 31.8583C48.1936 31.8736 48.1943 31.8896 48.2114 31.9049C48.2291 31.9361 48.2548 31.959 48.2725 31.9903C48.6981 32.5246 49.0384 33.1821 49.2758 33.9316C49.7643 33.8162 50.2483 33.7889 50.7207 33.8739C50.8448 33.8929 50.9611 33.9202 51.0774 33.9475C51.0859 33.9551 51.1024 33.9545 51.1024 33.9545C51.1188 33.9538 51.1273 33.9615 51.1437 33.9608C51.2022 33.9825 51.2522 33.9964 51.3106 34.0181C51.3356 34.0251 51.3691 34.0397 51.3941 34.0467C51.6366 34.1409 51.8639 34.2676 52.0999 34.402C51.8779 33.8197 51.8788 32.8689 52.1097 31.5254C50.8454 30.9927 50.0977 29.6483 49.8745 27.4841C49.0036 27.5029 48.2724 27.3244 47.688 26.9243C47.6709 26.909 47.6374 26.8944 47.6203 26.8791C47.222 26.5994 46.9017 26.2207 46.6509 25.7354C46.6417 25.7118 46.6246 25.6965 46.6154 25.6729C46.5904 25.6659 46.5569 25.6512 46.5398 25.6359C45.8538 25.3597 45.3344 24.9411 44.9981 24.3793C44.9896 24.3716 44.981 24.364 44.981 24.364C44.7066 23.9035 44.5431 23.3428 44.5068 22.6811C44.0622 22.6669 43.6497 22.6355 43.2686 22.5708C43.2522 22.5715 43.2358 22.5721 43.2273 22.5645C43.1116 22.5531 42.9954 22.5258 42.8876 22.5062C42.8626 22.4992 42.8377 22.4922 42.8127 22.4852L42.7963 22.4858C42.7385 22.4802 42.6886 22.4662 42.6308 22.4605C41.9002 22.2979 41.3127 22.0178 40.8696 21.652C40.5882 21.4156 40.3547 21.1453 40.1856 20.8404C39.4285 21.0225 38.7915 21.1278 38.2746 21.1565C38.2254 21.1584 38.1926 21.1598 38.1433 21.1617C38.0284 21.1663 37.9128 21.155 37.8057 21.1512C37.7893 21.1519 37.7729 21.1526 37.7643 21.1449C37.5666 21.1368 37.3846 21.1121 37.2348 21.0702C37.2697 21.1167 37.3046 21.1633 37.3388 21.1939L37.3473 21.2015C37.819 21.8538 38.0378 22.5561 37.996 23.3168C37.9981 23.3646 37.9922 23.4208 37.9778 23.4693C37.972 23.5255 37.9747 23.5893 37.9688 23.6454C37.9623 23.6856 37.9637 23.7175 37.9486 23.7501C37.9736 23.7571 38.0149 23.7634 38.0399 23.7704C38.6049 23.9077 39.1227 24.0947 39.5847 24.3239C40.3411 24.7091 40.9466 25.2202 41.4098 25.8649C39.4734 25.7744 37.8076 25.082 36.4209 23.7952C36.4051 23.8118 36.3894 23.8284 36.3815 23.8367C36.3343 23.8865 36.2864 23.9204 36.2392 23.9702C36.2234 23.9868 36.2077 24.0034 36.1841 24.0283C36.0338 24.1702 35.875 24.3043 35.7241 24.4302C35.6683 24.4724 35.629 24.5139 35.5732 24.5561C35.4859 24.6315 35.4065 24.6986 35.3107 24.7663C34.627 25.3209 33.9241 25.8124 33.187 26.2733Z" fill="#F1D43F"/>
    <path d="M150.972 22.2165C150.958 22.2324 150.935 22.2521 150.918 22.2594C150.896 22.2583 150.879 22.2656 150.857 22.2645L152.263 25.9539L152.836 25.7139L150.972 22.2165Z" fill="#55392E"/>
    <path d="M155.036 12.3571C155.032 12.3485 155.041 12.3448 155.036 12.3571C155.024 12.2603 155.004 12.1672 155.001 12.0667C154.215 12.4161 153.098 12.8225 151.642 13.2896C151.721 14.8113 151.553 16.0603 151.139 17.0364C151.118 17.0854 151.093 17.1468 151.073 17.1958C151.073 17.1958 151.077 17.2044 151.068 17.2081C151.009 17.3344 150.938 17.4558 150.875 17.5736C150.505 16.3158 150.438 14.7487 150.673 12.8723C150.558 12.8492 150.448 12.8139 150.342 12.7871C150.321 12.7859 150.304 12.7725 150.283 12.7713C150.211 12.7506 150.126 12.725 150.054 12.7043C149.775 12.6178 149.505 12.5277 149.235 12.4375C149.197 12.4228 149.147 12.4033 149.109 12.3887C149.096 12.3838 149.071 12.374 149.059 12.3692C147.825 11.8997 146.698 11.2437 145.666 10.4258C145.661 10.4381 145.668 10.4552 145.663 10.4675C145.659 10.5508 145.65 10.6256 145.645 10.7089C145.64 10.7212 145.644 10.7298 145.639 10.742C145.618 10.9541 145.597 11.1661 145.554 11.3769C145.543 11.4223 145.535 11.4762 145.524 11.5216C145.491 11.7287 145.448 11.9395 145.402 12.1418C145.396 12.1749 145.389 12.208 145.383 12.2411C145.343 12.4103 145.303 12.5794 145.254 12.7523C145.248 12.7854 145.238 12.8099 145.232 12.843C145.222 12.8675 145.217 12.8798 145.207 12.9043C145.202 12.9166 145.205 12.9252 145.196 12.9288C145.181 12.9656 145.179 13.0073 145.168 13.0527L145.163 13.0649C145.004 13.5786 144.81 14.0863 144.583 14.5878C144.564 14.6161 144.554 14.6406 144.539 14.6774C144.529 14.7019 144.519 14.7264 144.509 14.751C144.485 14.7914 144.465 14.8405 144.441 14.881C144.421 14.93 144.397 14.9705 144.377 15.0196C144.367 15.0441 144.353 15.06 144.352 15.0809C144.349 15.1225 144.331 15.1507 144.299 15.1741C144.275 15.2146 144.251 15.255 144.236 15.2918C144.173 15.4096 144.107 15.5188 144.044 15.6365C145.501 16.6827 146.58 17.7248 147.276 18.7748C147.315 18.8397 147.351 18.896 147.395 18.9486C147.403 18.9658 147.41 18.9829 147.418 19C147.405 18.9952 147.384 18.994 147.371 18.9891C147.215 18.9428 147.058 18.8965 146.898 18.8417C145.871 18.4588 144.8 17.7182 143.686 16.599L140.343 17.9983L142.462 21.1252C143.898 20.4732 145.384 20.3798 146.936 20.8377C146.537 21.1166 146.103 21.3183 145.614 21.4418C145.596 21.4491 145.588 21.4528 145.57 21.4602C145.54 21.4627 145.513 21.4738 145.483 21.4763C144.924 21.6084 144.299 21.6365 143.628 21.5618C143.553 21.9589 143.411 22.3231 143.186 22.6409C143.129 22.7255 143.069 22.8016 143.009 22.8777C143 22.8814 142.995 22.8937 142.995 22.8937C142.99 22.9059 142.981 22.9096 142.967 22.9256C142.93 22.9612 142.903 22.9931 142.875 23.025C142.861 23.041 142.839 23.0606 142.825 23.0765C142.67 23.2226 142.499 23.3553 142.311 23.4745C142.838 23.5078 143.577 23.8288 144.543 24.4507C145.382 23.7029 146.679 23.6075 148.444 24.1691C148.723 23.5241 149.108 23.0479 149.616 22.7542C149.634 22.7468 149.656 22.7271 149.674 22.7197C149.901 22.5943 150.143 22.5032 150.412 22.4513C150.565 22.4179 150.725 22.4017 150.889 22.394C150.91 22.3952 150.928 22.3878 150.95 22.389C150.963 22.3731 150.986 22.3534 151.004 22.346C151.167 22.1962 151.339 22.0636 151.513 21.9604C151.82 21.7809 152.149 21.6737 152.499 21.6387C152.508 21.635 152.517 21.6314 152.521 21.6399C152.971 21.5938 153.462 21.6627 153.988 21.8591C154.149 21.5377 154.312 21.2458 154.487 20.9796C154.492 20.9673 154.497 20.955 154.506 20.9514C154.554 20.8704 154.614 20.7943 154.666 20.7219C154.68 20.706 154.693 20.69 154.707 20.6741L154.712 20.6618C154.736 20.6213 154.764 20.5894 154.788 20.5489C155.16 20.0679 155.576 19.7314 156.009 19.5297C156.288 19.403 156.576 19.3228 156.879 19.2977C156.993 18.6812 157.125 18.1785 157.277 17.7898C157.292 17.753 157.302 17.7285 157.317 17.6917C157.352 17.6059 157.4 17.5249 157.439 17.4477C157.444 17.4354 157.449 17.4231 157.458 17.4194C157.531 17.2772 157.603 17.1557 157.694 17.0563C157.647 17.0662 157.599 17.0761 157.555 17.0945C156.889 17.2207 156.269 17.1447 155.692 16.8578C155.655 16.8431 155.613 16.8199 155.571 16.7967C155.53 16.7735 155.479 16.754 155.437 16.7308C155.408 16.7125 155.383 16.7027 155.363 16.6807C155.349 16.6967 155.33 16.7249 155.316 16.7408C155.019 17.109 154.7 17.4257 154.366 17.6873C153.812 18.1123 153.211 18.3842 152.554 18.5067C153.276 17.117 154.376 16.1286 155.843 15.5452C155.835 15.528 155.827 15.5109 155.824 15.5023C155.801 15.4509 155.791 15.4043 155.768 15.3529C155.76 15.3358 155.749 15.3101 155.741 15.2929C155.682 15.135 155.631 14.9733 155.584 14.8202C155.57 14.7651 155.551 14.7223 155.537 14.6671C155.508 14.5777 155.482 14.4969 155.453 14.4075C155.299 13.7302 155.145 13.0528 155.036 12.3571Z" fill="#F1D43F"/>
    <path d="M149.049 30.7913C149.035 30.8497 149.028 30.8789 149.014 30.9374C148.903 30.9948 148.81 31.0304 148.7 31.0879C149.547 31.4267 150.215 32.0128 150.675 32.8603L151.1 32.4473C150.619 31.6874 149.927 31.1524 149.049 30.7913Z" fill="#55392E"/>
    <path d="M145.449 27.9893C144.537 32.2306 146.073 33.4283 150.032 31.6313C150.139 31.5758 150.23 31.5414 150.32 31.507L145.449 27.9893Z" fill="#899B72"/>
    <path d="M149.808 31.9409C150.673 27.7036 149.035 26.598 144.89 28.5886C144.89 28.5886 144.9 28.5957 144.883 28.6167L149.757 32.1024C149.798 32.0323 149.795 31.9971 149.808 31.9409Z" fill="#A8B264"/>
    <path d="M30.7875 25.3585C30.8937 25.117 30.9112 24.91 30.7974 24.7344C30.0097 24.9215 29.023 24.9262 27.9155 24.8379L27.8875 25.1689C28.9454 25.3366 29.8825 25.4113 30.7875 25.3585Z" fill="#8A6738"/>
    <path d="M21.6287 22.3161C21.3305 22.2923 21.068 22.3547 20.834 22.5861C20.6036 22.776 20.4548 23.0141 20.4304 23.3038C20.2139 23.3282 19.9939 23.394 19.8521 23.5493C19.6217 23.7393 19.4694 24.0188 19.445 24.3085L28.6031 25.0385L28.6457 25.0419C28.8761 24.852 28.9788 24.6519 29.0032 24.3622C29.0277 24.0725 28.96 23.8588 28.7645 23.6349C28.569 23.411 28.363 23.3112 28.0648 23.2875L28.0222 23.2841C28.0257 23.2427 28.0257 23.2427 28.0292 23.2013C28.0607 22.8288 27.9609 22.4876 27.7263 22.2189C27.4916 21.9502 27.1614 21.7989 26.778 21.7684C26.5224 21.748 26.306 21.7724 26.0825 21.8796C26.0078 21.7486 25.9331 21.6177 25.8584 21.4867C25.6238 21.2181 25.2935 21.0667 24.9101 21.0362C24.5268 21.0056 24.1755 21.1026 23.899 21.3305C23.7146 21.4825 23.6154 21.6412 23.5127 21.8414C23.3885 21.7898 23.2216 21.7348 23.0512 21.7212C22.7104 21.6941 22.3592 21.7911 22.0826 22.019C21.8271 21.9986 21.7279 22.1574 21.6287 22.3161Z" fill="#5A603E"/>
    <path d="M19.6818 25.0349C19.8382 25.214 20.0016 25.3104 20.2076 25.4101C20.2041 25.4515 20.2041 25.4515 20.2041 25.4515C20.1796 25.7412 20.2829 26.0411 20.4784 26.265C20.6739 26.4889 20.919 26.6334 21.2598 26.6605L21.3024 26.6639C21.3345 26.7915 21.4092 26.9224 21.5265 27.0568C21.7611 27.3254 22.0523 27.432 22.3931 27.4591C22.5634 27.4727 22.7373 27.4449 22.9112 27.4171C22.9789 27.6308 23.0501 27.8032 23.2065 27.9823C23.4411 28.251 23.7714 28.4023 24.1548 28.4328C24.5381 28.4634 24.8894 28.3664 25.1659 28.1385C25.3042 28.0245 25.3999 27.9071 25.4991 27.7484C25.7016 27.8895 25.911 27.9479 26.1666 27.9683C26.55 27.9988 26.9012 27.9018 27.1778 27.6739C27.4543 27.446 27.6527 27.1285 27.6841 26.7561C27.6876 26.7147 27.6911 26.6733 27.6911 26.6733L27.7337 26.6767C28.0319 26.7004 28.2519 26.6347 28.4823 26.4447C28.7127 26.2548 28.8154 26.0546 28.8399 25.765C28.8643 25.4753 28.7966 25.2615 28.6011 25.0377L28.5585 25.0343L19.4004 24.3042C19.3794 24.5525 19.4437 24.8076 19.6818 25.0349Z" fill="#898D4E"/>
    <path d="M142.078 48.509C142.087 48.5352 142.104 48.5701 142.121 48.5878C142.148 48.597 142.165 48.6146 142.183 48.615L138.547 52.3676L137.973 51.7848L142.078 48.509Z" fill="#55392E"/>
    <path d="M139.966 36.9021C140.04 36.7999 140.096 36.6974 140.16 36.5864C140.925 37.3981 142.059 38.4426 143.569 39.7285C142.674 41.5251 142.22 43.1149 142.198 44.4891C142.196 44.5583 142.194 44.6447 142.201 44.7227C142.206 44.9043 142.22 45.0948 142.251 45.2684C143.358 43.9346 144.254 42.0862 144.958 39.7062C145.108 39.7354 145.259 39.7473 145.401 39.7676C145.428 39.7768 145.455 39.7687 145.481 39.7779C145.579 39.7887 145.694 39.7998 145.792 39.8105C146.174 39.8446 146.547 39.8698 146.912 39.8863C146.965 39.8874 147.036 39.8889 147.09 39.8901C147.107 39.8904 147.143 39.8912 147.161 39.8916C148.895 39.9372 150.6 39.7056 152.275 39.2312C152.275 39.2485 152.256 39.2654 152.247 39.2912C152.209 39.3941 152.18 39.4886 152.142 39.5915C152.142 39.6088 152.133 39.6173 152.132 39.6346C152.046 39.9007 151.96 40.1669 151.9 40.4423C151.89 40.5026 151.871 40.5714 151.861 40.6317C151.792 40.8983 151.733 41.1737 151.682 41.4406C151.672 41.4836 151.662 41.5267 151.661 41.5785C151.621 41.8024 151.58 42.0264 151.539 42.2503C151.529 42.2933 151.529 42.3279 151.527 42.3798C151.527 42.4143 151.526 42.4316 151.525 42.4662C151.525 42.4835 151.525 42.4835 151.525 42.5007C151.523 42.5526 151.505 42.6041 151.503 42.6559L151.503 42.6732C151.425 43.3719 151.391 44.0801 151.402 44.798C151.409 44.8414 151.409 44.8759 151.417 44.9193C151.416 44.9539 151.415 44.9885 151.423 45.0319C151.43 45.0925 151.429 45.1617 151.428 45.2135C151.426 45.2827 151.434 45.3434 151.432 45.4125C151.431 45.4471 151.44 45.4732 151.43 45.4989C151.411 45.5504 151.419 45.5938 151.445 45.6376C151.452 45.6982 151.46 45.7589 151.45 45.8192C151.464 45.9924 151.487 46.1572 151.5 46.3304C149.192 46.8691 147.343 47.5905 145.951 48.5119C145.87 48.5706 145.798 48.621 145.725 48.6713C145.707 48.6882 145.689 48.7051 145.662 48.7132C145.68 48.7136 145.706 48.7228 145.724 48.7232C145.937 48.745 146.159 48.7757 146.381 48.7891C147.822 48.8371 149.503 48.4753 151.434 47.6778L154.697 50.9897L150.497 53.7101C149.107 52.2106 147.364 51.3606 145.251 51.1426C145.586 51.6772 146.003 52.1357 146.528 52.5273C146.545 52.545 146.554 52.5538 146.571 52.5715C146.607 52.5895 146.633 52.616 146.668 52.634C147.272 53.0706 148.012 53.4149 148.852 53.649C148.734 54.1653 148.713 54.6749 148.818 55.17C148.841 55.3002 148.874 55.4219 148.916 55.5352C148.925 55.5441 148.924 55.5614 148.924 55.5614C148.924 55.5786 148.933 55.5875 148.941 55.6136C148.966 55.6746 148.983 55.7269 149 55.7791C149.008 55.8052 149.025 55.8402 149.033 55.8663C149.143 56.1194 149.289 56.3559 149.444 56.6013C148.79 56.3799 147.731 56.4005 146.238 56.6712C145.619 55.3524 144.105 54.5939 141.689 54.3867C141.692 53.4875 141.486 52.7482 141.063 52.1599C141.046 52.1423 141.037 52.1334 141.029 52.1073C141.011 52.0897 140.994 52.0547 140.977 52.037C140.657 51.6238 140.228 51.2948 139.682 51.0411C139.656 51.0318 139.638 51.0142 139.621 51.0138C139.612 50.9877 139.595 50.9527 139.578 50.9351C139.256 50.2192 138.779 49.6816 138.137 49.3307C138.128 49.3219 138.128 49.3219 138.11 49.3215L138.102 49.3127C137.583 49.0336 136.955 48.8732 136.217 48.8488C136.192 48.3814 136.148 47.9481 136.077 47.5403C136.078 47.523 136.078 47.5057 136.069 47.4969C136.054 47.3755 136.021 47.2537 135.997 47.1408C135.989 47.1147 135.981 47.0886 135.972 47.0625L135.973 47.0452C135.965 46.9845 135.949 46.9323 135.941 46.8716C135.745 46.1066 135.42 45.4944 135.004 45.0359C134.734 44.7449 134.428 44.5049 134.085 44.3333C134.272 43.5332 134.376 42.861 134.398 42.3168C134.399 42.2649 134.4 42.2303 134.401 42.1785C134.403 42.0575 134.388 41.9361 134.382 41.8236C134.382 41.8063 134.383 41.789 134.374 41.7802C134.361 41.5724 134.338 41.3904 134.28 41.2248C134.333 41.2605 134.385 41.2963 134.429 41.3404C135.165 41.823 135.952 42.0387 136.79 41.9874C136.843 41.9885 136.906 41.9812 136.968 41.9739C137.031 41.9666 137.102 41.9681 137.164 41.9608C137.209 41.9531 137.245 41.9539 137.281 41.9373C137.289 41.9635 137.297 42.0068 137.305 42.033C137.47 42.6244 137.689 43.1652 137.954 43.6463C138.399 44.434 138.981 45.0603 139.709 45.5341C139.568 43.4992 138.762 41.7614 137.299 40.3296C137.317 40.3127 137.336 40.2958 137.345 40.2873C137.399 40.2366 137.436 40.1855 137.491 40.1348C137.509 40.1179 137.527 40.101 137.545 40.0668C137.7 39.9058 137.847 39.736 137.984 39.5747C138.03 39.5151 138.075 39.4729 138.121 39.4133C138.203 39.32 138.276 39.2351 138.35 39.1329C138.926 38.4449 139.459 37.6954 139.966 36.9021Z" fill="#BC642F"/>
    <path d="M147.866 42.6479C147.82 42.7248 147.745 42.8615 147.661 43.0586C147.568 43.2468 147.448 43.4085 147.303 43.5438C147.203 43.6367 146.652 44.4031 145.64 45.8341C144.574 47.3503 143.858 48.3207 143.483 48.7364C144.288 48.9524 145.031 49.1758 145.711 49.4064C146.991 49.8401 147.934 50.2839 148.538 50.7204L148.492 50.7973C147.794 50.5662 146.048 50.6154 143.255 50.9449C143.192 51.0041 143.102 51.0367 142.968 51.0425C142.835 51.0483 142.736 51.0894 142.681 51.1402C142.563 51.25 142.527 51.3011 142.58 51.3023C142.615 51.3203 142.623 51.3464 142.623 51.381C142.622 51.3983 142.622 51.4156 142.604 51.4325L143.378 52.2185C143.438 52.2976 143.533 52.4293 143.662 52.6309C143.783 52.8064 143.869 52.9293 143.93 52.9911C144.043 53.1059 144.173 53.273 144.311 53.4489C144.493 53.6862 144.63 53.9139 144.697 54.1056L144.618 54.0606C143.722 53.5228 142.843 53.0544 141.989 52.6298C141.611 52.4402 141.285 52.2862 141.021 52.1768C141.003 52.1592 140.994 52.1503 140.986 52.1242C140.969 52.1066 140.952 52.0716 140.934 52.054C140.614 51.6408 140.186 51.3117 139.64 51.058C139.613 51.0487 139.596 51.0311 139.578 51.0307C139.57 51.0046 139.553 50.9696 139.535 50.952C139.213 50.2361 138.736 49.6985 138.094 49.3476C138.086 49.3388 138.086 49.3388 138.068 49.3384C137.968 49.025 137.843 48.6679 137.7 48.2758C136.986 46.4016 136.586 45.2172 136.499 44.7225C136.675 44.83 137.269 45.2923 138.292 46.1182C139.323 46.953 139.874 47.3884 139.953 47.4333C140.246 47.0591 140.4 46.1718 140.369 44.7619C140.352 43.9661 140.326 42.7378 140.266 41.0505L140.346 41.0954C140.353 41.1388 140.523 41.5056 140.855 42.1957C141.221 42.9384 141.457 43.5141 141.563 43.9227C141.735 44.5749 141.881 45.2178 141.991 45.8772C142.077 46.3719 142.142 46.6673 142.193 46.7548C142.238 46.7298 142.319 46.6883 142.445 46.6391C142.544 46.598 142.625 46.5565 142.698 46.4889C142.761 46.4297 142.942 46.2953 143.241 46.0855C143.539 45.8757 143.72 45.7412 143.784 45.6821C143.802 45.6652 144.445 45.1688 145.731 44.1933C147.044 43.1924 147.777 42.6461 147.913 42.5538L147.866 42.6479Z" fill="#D39339"/>
    <path d="M11.8374 110.884C13.5023 111.202 14.7964 111.701 15.738 112.368C15.8804 112.475 16.0145 112.593 16.1469 112.702C16.1586 112.71 16.1721 112.728 16.1838 112.736C16.162 112.729 16.142 112.733 16.1219 112.736C16.05 112.738 15.9781 112.74 15.8962 112.743C14.5348 112.746 12.9601 112.414 11.1639 111.757C11.0923 111.879 11.0307 111.999 10.9592 112.121C10.9241 112.157 10.9008 112.201 10.8775 112.245C10.8742 112.285 10.8593 112.318 10.8226 112.344C10.8042 112.357 10.7975 112.378 10.7809 112.401C10.7475 112.447 10.7243 112.491 10.6909 112.536C10.6659 112.57 10.6326 112.616 10.6093 112.66C10.5943 112.692 10.5777 112.715 10.561 112.738C10.546 112.77 10.5293 112.793 10.5144 112.826C10.1861 113.311 9.83271 113.77 9.45416 114.203L9.44583 114.214C9.42083 114.249 9.38409 114.275 9.35909 114.309C9.35077 114.32 9.35077 114.32 9.34244 114.332C9.32576 114.354 9.31741 114.366 9.30076 114.389C9.27576 114.423 9.25908 114.446 9.23239 114.47C9.10058 114.602 8.96881 114.734 8.83704 114.866C8.812 114.9 8.7853 114.924 8.75861 114.949C8.60012 115.105 8.43164 115.263 8.2614 115.411C8.22635 115.447 8.18129 115.485 8.14628 115.521C7.97776 115.679 7.79582 115.819 7.61385 115.959C7.60553 115.97 7.59551 115.972 7.58715 115.983C7.51373 116.036 7.45031 116.086 7.37683 116.138C7.35846 116.151 7.3384 116.155 7.33008 116.166C8.67247 116.587 9.9216 117.183 11.0609 117.979C11.0726 117.987 11.0961 118.003 11.1078 118.011C11.143 118.035 11.1899 118.068 11.2251 118.092C11.4614 118.264 11.6993 118.445 11.939 118.636C11.9993 118.686 12.0714 118.745 12.1317 118.795C12.1451 118.813 12.1668 118.819 12.1803 118.837C12.2658 118.913 12.3613 118.988 12.4485 119.074C14.0307 117.791 15.4937 116.949 16.8574 116.545C16.7975 116.675 16.7176 116.808 16.6359 116.932C16.6043 116.987 16.5626 117.044 16.5293 117.09C15.8727 118 14.8262 118.863 13.3882 119.671C13.7985 121.197 14.0691 122.396 14.2018 123.276C14.297 123.231 14.3822 123.186 14.4791 123.151C15.1891 122.843 15.8959 122.577 16.6028 122.37C16.6998 122.334 16.7883 122.31 16.8869 122.284C16.9454 122.264 16.9956 122.256 17.0541 122.236C17.2212 122.189 17.3984 122.139 17.5772 122.1C17.6056 122.085 17.6257 122.082 17.6457 122.079C17.7059 122.069 17.7543 122.051 17.8146 122.041C17.8246 122.039 17.8446 122.036 17.8647 122.033C17.5546 120.43 17.8267 118.911 18.6828 117.488C18.9486 118.126 19.0457 118.801 18.9756 119.524C18.9282 119.963 18.8223 120.422 18.6562 120.89C18.6496 120.911 18.6346 120.944 18.628 120.965C18.6598 120.97 18.6832 120.986 18.7167 121C18.762 121.023 18.8088 121.055 18.8541 121.078C18.8993 121.101 18.9445 121.123 18.9797 121.148C19.5642 121.483 19.9902 121.974 20.2578 122.622C20.2663 122.67 20.2848 122.717 20.3033 122.765C20.3415 122.628 20.4113 122.496 20.4996 122.351C20.4979 122.342 20.5063 122.33 20.5146 122.319C20.5629 122.241 20.6095 122.153 20.6678 122.073C20.6929 122.039 20.7095 122.016 20.7345 121.982C21.0029 121.627 21.3865 121.223 21.8855 120.77C21.7359 120.504 21.6432 120.209 21.599 119.895C21.5342 119.405 21.603 118.852 21.8289 118.254C21.8522 118.21 21.8655 118.167 21.8888 118.123L21.8971 118.112C21.9038 118.091 21.9104 118.07 21.9171 118.049C21.9536 117.962 21.9885 117.866 22.0351 117.779C22.0334 117.769 22.0418 117.757 22.0501 117.746C22.1931 117.442 22.3663 117.133 22.5679 116.809C22.0977 116.476 21.76 116.102 21.5423 115.699C21.5459 115.687 21.5496 115.674 21.5532 115.662C21.5414 115.654 21.5414 115.654 21.5397 115.645C21.3129 115.202 21.2386 114.72 21.2933 114.202L22.7617 114.07L22.6497 113.427L21.2568 113.73C21.0431 113.349 20.9227 112.969 20.9032 112.582C20.8997 112.562 20.9047 112.531 20.9013 112.512C20.9079 112.491 20.9062 112.481 20.9029 112.461C20.8936 112.448 20.8836 112.431 20.8741 112.417C20.8758 111.85 21.0801 111.277 21.4921 110.691C19.9721 109.487 19.3135 108.312 19.5146 107.156C18.3895 106.68 17.6709 106.226 17.337 105.79C17.3258 106.022 17.313 106.245 17.2684 106.463C17.2618 106.484 17.2569 106.515 17.2502 106.536C17.237 106.578 17.2237 106.621 17.2121 106.673C17.2055 106.694 17.2071 106.704 17.1988 106.715C17.1988 106.715 17.1905 106.726 17.1922 106.736C17.1674 106.83 17.1325 106.926 17.0875 107.024C16.9263 107.401 16.6746 107.733 16.3542 108.027C16.8071 108.554 17.1413 109.11 17.3418 109.669C17.3569 109.696 17.362 109.725 17.3771 109.753C17.3805 109.773 17.3822 109.782 17.3856 109.802C17.5541 110.295 17.6188 110.786 17.5934 111.291C16.2811 110.214 15.5118 108.877 15.2819 107.261L11.201 107.23L11.8374 110.884Z" fill="#D39339"/>
    <path d="M147.093 133.479C145.796 133.328 144.773 133.017 144.01 132.557C143.895 132.483 143.785 132.4 143.677 132.324C143.667 132.318 143.656 132.306 143.646 132.3C143.664 132.304 143.679 132.3 143.694 132.296C143.749 132.291 143.804 132.286 143.867 132.278C144.912 132.2 146.141 132.367 147.559 132.771C147.606 132.674 147.646 132.578 147.694 132.48C147.719 132.451 147.734 132.416 147.75 132.381C147.75 132.349 147.759 132.323 147.786 132.301C147.799 132.29 147.803 132.274 147.814 132.255C147.837 132.218 147.853 132.183 147.876 132.146C147.893 132.119 147.916 132.082 147.931 132.047C147.94 132.021 147.952 132.003 147.963 131.984C147.973 131.958 147.984 131.94 147.994 131.914C148.217 131.524 148.461 131.151 148.726 130.798L148.732 130.788C148.749 130.761 148.776 130.739 148.793 130.711C148.799 130.702 148.799 130.702 148.805 130.693C148.816 130.674 148.822 130.665 148.833 130.647C148.85 130.619 148.862 130.601 148.881 130.58C148.974 130.472 149.068 130.363 149.161 130.254C149.178 130.227 149.197 130.206 149.216 130.186C149.329 130.057 149.449 129.927 149.571 129.803C149.595 129.774 149.628 129.742 149.653 129.713C149.773 129.582 149.904 129.464 150.035 129.347C150.041 129.337 150.049 129.336 150.054 129.326C150.108 129.282 150.153 129.24 150.207 129.196C150.22 129.185 150.235 129.181 150.241 129.172C149.185 128.924 148.191 128.535 147.269 127.989C147.26 127.983 147.241 127.972 147.231 127.966C147.203 127.95 147.165 127.927 147.137 127.911C146.945 127.792 146.752 127.666 146.556 127.533C146.507 127.498 146.448 127.457 146.399 127.422C146.388 127.409 146.37 127.405 146.359 127.392C146.289 127.338 146.211 127.286 146.139 127.225C145 128.298 143.927 129.027 142.904 129.413C142.942 129.31 142.996 129.203 143.051 129.104C143.072 129.059 143.101 129.013 143.123 128.977C143.574 128.241 144.326 127.52 145.382 126.819C144.977 125.67 144.698 124.765 144.544 124.097C144.474 124.137 144.411 124.176 144.339 124.209C143.812 124.484 143.285 124.728 142.755 124.926C142.682 124.959 142.616 124.983 142.542 125.009C142.498 125.027 142.46 125.036 142.416 125.055C142.291 125.1 142.157 125.148 142.022 125.188C142.001 125.201 141.986 125.205 141.971 125.209C141.925 125.219 141.889 125.236 141.844 125.247C141.836 125.249 141.821 125.252 141.806 125.256C142.139 126.47 142.02 127.65 141.447 128.791C141.205 128.316 141.09 127.803 141.101 127.244C141.112 126.904 141.166 126.546 141.266 126.178C141.269 126.161 141.279 126.135 141.283 126.119C141.258 126.117 141.239 126.105 141.213 126.096C141.177 126.081 141.139 126.059 141.103 126.044C141.067 126.029 141.03 126.015 141.002 125.998C140.533 125.773 140.177 125.42 139.933 124.938C139.924 124.901 139.907 124.866 139.89 124.83C139.869 124.937 139.823 125.043 139.764 125.159C139.766 125.166 139.76 125.175 139.754 125.184C139.722 125.247 139.691 125.317 139.651 125.382C139.634 125.409 139.622 125.428 139.605 125.455C139.42 125.743 139.15 126.074 138.793 126.45C138.924 126.646 139.013 126.868 139.065 127.106C139.144 127.479 139.124 127.907 138.986 128.379C138.97 128.414 138.963 128.447 138.947 128.482L138.942 128.492C138.938 128.508 138.934 128.525 138.93 128.541C138.907 128.61 138.886 128.685 138.856 128.755C138.857 128.763 138.852 128.772 138.846 128.781C138.754 129.023 138.64 129.27 138.504 129.53C138.885 129.759 139.166 130.027 139.357 130.324C139.355 130.333 139.353 130.344 139.351 130.353C139.36 130.359 139.36 130.359 139.362 130.366C139.563 130.693 139.648 131.059 139.637 131.46L138.517 131.643L138.641 132.13L139.693 131.82C139.879 132.101 139.994 132.386 140.032 132.682C140.036 132.697 140.034 132.721 140.038 132.736C140.034 132.752 140.036 132.76 140.04 132.774C140.047 132.784 140.056 132.796 140.064 132.807C140.097 133.242 139.974 133.693 139.692 134.167C140.93 135.006 141.505 135.871 141.419 136.77C142.311 137.073 142.89 137.381 143.172 137.697C143.167 137.518 143.164 137.347 143.185 137.177C143.189 137.16 143.191 137.136 143.195 137.12C143.202 137.086 143.21 137.053 143.216 137.013C143.22 136.996 143.218 136.989 143.223 136.979C143.223 136.979 143.229 136.97 143.227 136.963C143.241 136.889 143.262 136.813 143.291 136.736C143.392 136.437 143.566 136.168 143.794 135.925C143.415 135.546 143.126 135.137 142.939 134.72C142.926 134.699 142.92 134.677 142.907 134.657C142.903 134.642 142.901 134.635 142.897 134.62C142.739 134.25 142.66 133.877 142.65 133.488C143.721 134.242 144.391 135.225 144.663 136.453L147.798 136.249L147.093 133.479Z" fill="#D39339"/>
    <path d="M127.87 155.321C126.259 157.034 123.663 156.95 123.663 156.95C123.663 156.95 123.394 154.477 125.137 152.76C126.947 150.977 129.428 151.14 129.428 151.14C129.428 151.14 129.546 153.54 127.87 155.321Z" fill="#F1D43F"/>
    <path d="M135.591 142.984C134.839 144.209 133.169 144.405 133.169 144.405C133.169 144.405 132.598 142.884 133.433 141.643C134.3 140.355 135.91 140.219 135.91 140.219C135.91 140.219 136.373 141.709 135.591 142.984Z" fill="#F1D43F"/>
    <path d="M46.0616 153.591C45.3097 154.817 43.6397 155.013 43.6397 155.013C43.6397 155.013 43.0687 153.492 43.9038 152.251C44.7711 150.962 46.381 150.827 46.381 150.827C46.381 150.827 46.8435 152.316 46.0616 153.591Z" fill="#D39339"/>
    <path d="M20.2641 143.875C20.8117 145.199 19.9598 146.608 19.9598 146.608C19.9598 146.608 18.3685 146.127 17.8589 144.73C17.3297 143.278 18.1947 141.952 18.1947 141.952C18.1947 141.952 19.6946 142.498 20.2641 143.875Z" fill="#D39339"/>
    <path d="M25.4439 154.263C24.9973 155.622 23.4164 156.18 23.4164 156.18C23.4164 156.18 22.5056 154.825 23.0298 153.432C23.5741 151.986 25.1106 151.5 25.1106 151.5C25.1106 151.5 25.9084 152.849 25.4439 154.263Z" fill="#D39339"/>
    <path d="M19.1027 152.281C18.1123 153.335 16.436 153.201 16.436 153.201C16.436 153.201 16.1916 151.599 17.2666 150.547C18.3829 149.454 19.988 149.636 19.988 149.636C19.988 149.636 20.1326 151.186 19.1027 152.281Z" fill="#D39339"/>
    <path d="M150.105 63.3334C148.038 63.153 146.76 61.2068 146.76 61.2068C146.76 61.2068 148.404 59.5699 150.541 59.8439C152.761 60.1285 153.924 62.0373 153.924 62.0373C153.924 62.0373 152.254 63.5209 150.105 63.3334Z" fill="#D39339"/>
    <path d="M18.0864 71.8409C15.9415 73.1185 13.248 72.1238 13.248 72.1238C13.248 72.1238 13.6284 69.3752 15.912 68.139C18.2834 66.8553 20.8364 67.8951 20.8364 67.8951C20.8364 67.8951 20.317 70.5124 18.0864 71.8409Z" fill="#D39339"/>
    <path d="M13.767 64.8636C11.3001 64.3832 10.0215 61.8745 10.0215 61.8745C10.0215 61.8745 12.2242 60.1104 14.7638 60.7128C17.401 61.3383 18.5451 63.7872 18.5451 63.7872C18.5451 63.7872 16.3324 65.3631 13.767 64.8636Z" fill="#F1D43F"/>
    <path d="M34.7124 123.425C34.6136 123.414 34.5149 123.409 34.4162 123.409C34.2296 123.409 34.0486 123.419 33.873 123.441C34.3119 123.675 34.7179 124.043 35.0909 124.544L35.5517 125.359H35.9796C36.1332 125.37 36.2813 125.386 36.424 125.407C36.7531 125.439 37.0823 125.477 37.4114 125.519C37.3676 125.445 37.3237 125.375 37.2798 125.311C36.9945 124.853 36.3856 124.288 35.453 123.617C35.2335 123.531 35.0086 123.473 34.7782 123.441C34.7563 123.43 34.7344 123.425 34.7124 123.425ZM47.2201 124C47.1213 123.99 47.0226 123.984 46.9239 123.984C46.7373 123.984 46.5618 124 46.3972 124.032C47.7467 124.768 48.7671 126.702 49.4583 129.836C49.996 132.277 50.2647 134.814 50.2647 137.447C50.2647 139.43 49.8917 141.013 49.1456 142.196C48.9152 142.569 48.6409 142.926 48.3228 143.267C48.3337 143.395 48.3502 143.518 48.3721 143.635C48.4599 144.136 48.4544 144.605 48.3557 145.042C49.5516 144.264 50.4403 143.416 51.0218 142.5C51.7569 141.306 52.1244 139.723 52.1244 137.751C52.1244 135.118 51.8611 132.581 51.3345 130.14C50.4897 126.292 49.1401 124.251 47.2859 124.016C47.264 124.006 47.2421 124 47.2201 124Z" fill="#35597A"/>
    <path d="M39.9257 121.666C39.6404 121.059 39.1851 120.755 38.5597 120.755C37.7478 120.755 37.0401 121.139 36.4367 121.906C36.0965 122.332 35.7674 122.903 35.4492 123.617C35.3285 123.894 35.2078 124.203 35.0872 124.544C34.9994 124.758 34.9171 124.992 34.8403 125.248C34.0065 125.163 33.1836 125.088 32.3717 125.024C31.9767 124.981 31.5927 124.944 31.2196 124.912C31.2745 124.837 31.3349 124.768 31.4007 124.704C31.686 124.416 32.0096 124.171 32.3717 123.969C32.8544 123.692 33.3536 123.516 33.8693 123.441C34.0448 123.42 34.2259 123.409 34.4124 123.409C34.5111 123.409 34.6099 123.414 34.7086 123.425L33.1451 123.185C33.0355 123.153 32.9257 123.132 32.816 123.121C32.7173 123.111 32.624 123.105 32.5362 123.105C31.8231 123.105 31.1428 123.297 30.4955 123.681C30.0676 123.915 29.7001 124.203 29.3929 124.544C29.327 124.619 29.2612 124.699 29.1953 124.784C28.9869 124.763 28.7839 124.747 28.5864 124.736C27.6758 124.853 27.0504 124.965 26.7103 125.072C25.7557 125.349 25.0426 126.085 24.5708 127.278L20.9172 145.202C20.7088 146.737 21.3506 147.798 22.8428 148.384C24.3349 148.97 26.1233 149.551 28.2079 150.127C30.3035 150.692 32.1522 151.065 33.7541 151.246C34.6209 151.353 35.3066 151.374 35.8113 151.31C35.899 151.31 35.9868 151.316 36.0746 151.326C40.5072 151.284 44.3198 149.983 47.5126 147.425C48.0612 146.711 48.3409 145.917 48.3519 145.042C48.4507 144.605 48.4561 144.136 48.3683 143.635C48.3464 143.518 48.33 143.396 48.319 143.268C47.6826 138.343 47.1395 134.538 46.6897 131.851C46.5032 130.817 46.4264 130.3 46.4593 130.3C46.4812 130.3 46.3071 130.608 46.4606 131.013C46.2961 129.275 46.1301 127.934 45.4389 127.199C45.0769 126.804 44.3198 126.479 43.1678 126.223C43.6505 125.466 44.2211 124.912 44.8794 124.56C45.3621 124.273 45.8668 124.097 46.3934 124.033C46.558 124.001 46.7336 123.985 46.9201 123.985C47.0188 123.985 47.1176 123.99 47.2163 124.001L45.6693 123.761C45.5596 123.729 45.4444 123.708 45.3237 123.697C45.236 123.686 45.1427 123.681 45.0439 123.681C44.3308 123.681 43.6505 123.873 43.0032 124.257C42.323 124.63 41.7854 125.189 41.3904 125.935C40.9186 125.871 40.4029 125.823 39.8434 125.791C39.9531 125.365 40.0299 125.024 40.0738 124.768C40.1945 124.225 40.2548 123.761 40.2548 123.377C40.2548 122.684 40.1451 122.114 39.9257 121.666ZM38.6584 125.04C38.6036 125.221 38.5487 125.429 38.4938 125.664C38.4061 125.642 38.3238 125.626 38.247 125.616C37.9617 125.584 37.6819 125.552 37.4077 125.52C37.0785 125.477 36.7494 125.44 36.4202 125.408C36.2776 125.386 36.1295 125.37 35.9759 125.36C36.0965 124.944 36.2282 124.555 36.3709 124.193C36.4696 123.926 36.5793 123.665 36.7 123.409C37.1827 122.364 37.6655 121.842 38.1482 121.842C38.5542 121.842 38.812 122.039 38.9218 122.434C38.9656 122.594 38.9876 122.913 38.9876 123.393C38.9876 123.734 38.8779 124.283 38.6584 125.04Z" fill="#87C4A1"/>
    <path d="M35.2192 144.228L34.8242 146.674L36.47 146.914L35.9598 144.339L35.2192 144.228Z" fill="#362A2D"/>
    <path d="M23.6973 140.422V141.414C26.3414 142.842 30.4558 143.652 36.0404 143.844V143.077C30.4558 142.874 26.3414 141.989 23.6973 140.422Z" fill="#35597A"/>
    <path d="M42.2748 127.662C41.5287 128.248 40.9637 129.047 40.5797 130.06C40.4261 130.614 40.2834 131.222 40.1518 131.883C39.9323 133.034 39.7458 134.329 39.5922 135.768C39.4496 137.1 39.3399 138.555 39.2631 140.133C39.2411 140.709 39.2192 141.311 39.1972 141.94C39.1863 142.185 39.1753 142.43 39.1643 142.675C38.9888 147.323 38.5225 149.94 37.7654 150.526C37.0962 151.038 36.5311 151.304 36.0703 151.326C40.5029 151.283 44.3155 149.982 47.5083 147.424C48.0569 146.71 48.3366 145.916 48.3476 145.042C48.4464 144.605 48.4518 144.136 48.3641 143.635C48.3421 143.517 48.3257 143.395 48.3147 143.267C47.6783 138.342 47.1352 134.537 46.6854 131.851C46.4989 130.817 46.4221 130.3 46.455 130.3C45.8735 128.573 45.2372 127.566 44.5459 127.278C43.7779 126.958 43.0209 127.086 42.2748 127.662Z" fill="#5F9188"/>
    <path d="M39.0339 125.729C38.8474 125.697 38.6664 125.675 38.4908 125.665C38.403 125.643 38.3207 125.627 38.244 125.617C37.9587 125.585 37.6789 125.553 37.4046 125.521C37.0755 125.478 36.7463 125.441 36.4172 125.409C36.2746 125.388 36.1264 125.372 35.9728 125.361C35.8411 125.34 35.7095 125.329 35.5778 125.329C35.3255 125.286 35.0786 125.26 34.8373 125.249C34.0034 125.164 33.1805 125.089 32.3686 125.025C31.9737 124.982 31.5897 124.945 31.2166 124.913C30.9313 124.892 30.6461 124.871 30.3608 124.849C29.9658 124.828 29.5763 124.807 29.1923 124.785C28.9839 124.764 28.7809 124.748 28.5834 124.737C27.6728 124.855 27.0474 124.966 26.7073 125.073C25.7527 125.35 25.0396 126.086 24.5678 127.28C24.1947 129.689 24.4526 131.805 25.3413 133.627C26.1422 135.258 27.2887 136.351 28.7809 136.905C29.0586 137.033 29.5359 137.161 30.2127 137.289C31.65 137.481 33.1805 137.214 34.8043 136.489C35.7808 136.031 36.7353 135.306 37.668 134.315C37.9532 133.995 38.233 133.654 38.5073 133.292C38.7706 132.961 39.0339 132.604 39.2972 132.22C39.5386 131.858 39.78 131.469 40.0214 131.053C40.2079 130.733 40.3944 130.403 40.5809 130.062C40.9649 129.049 41.53 128.25 42.276 127.663C43.0221 127.088 43.7792 126.96 44.5472 127.28C45.2384 127.567 45.8748 128.575 46.4562 130.302C46.4782 130.302 46.3244 130.589 46.478 130.994C46.3134 129.257 46.1271 127.935 45.4359 127.2C45.0738 126.805 44.3168 126.48 43.1648 126.224C42.6491 126.118 42.0566 126.022 41.3873 125.937C40.9156 125.873 40.3999 125.825 39.8404 125.793C39.577 125.761 39.3082 125.739 39.0339 125.729Z" fill="#8D80CF"/>
    <path d="M30.0433 138.423C29.8787 138.189 29.6593 138.05 29.385 138.007C29.1216 137.944 28.8858 137.986 28.6773 138.135C28.5237 138.231 28.425 138.354 28.3811 138.503C28.3481 138.588 28.3207 138.679 28.2988 138.775C28.2768 139.041 28.3481 139.281 28.5127 139.494C28.6773 139.729 28.8967 139.878 29.171 139.942C29.4453 139.985 29.6812 139.932 29.8787 139.782C30.0872 139.644 30.2079 139.441 30.2408 139.175C30.2517 139.121 30.2572 139.073 30.2572 139.031C30.2572 138.988 30.2572 138.956 30.2572 138.935C30.2353 138.754 30.164 138.583 30.0433 138.423ZM29.7141 135.145C29.5605 135.113 29.4179 135.14 29.2862 135.225C29.1655 135.321 29.0942 135.449 29.0723 135.609C29.0723 135.63 29.0723 135.652 29.0723 135.673C29.0723 135.812 29.1107 135.934 29.1875 136.041C29.2972 136.19 29.4343 136.281 29.5989 136.313C29.7525 136.345 29.8897 136.307 30.0104 136.201C30.0762 136.169 30.1311 136.121 30.1749 136.057C30.2079 135.993 30.2298 135.924 30.2408 135.849C30.2517 135.689 30.2133 135.534 30.1256 135.385C30.0158 135.268 29.8787 135.188 29.7141 135.145Z" fill="#362A2D"/>
    <path d="M30.1747 136.056C30.1308 136.12 30.076 136.168 30.0101 136.2C29.8895 136.307 29.7523 136.344 29.5987 136.312C29.4341 136.28 29.297 136.189 29.1873 136.04C29.1104 135.934 29.0721 135.811 29.0721 135.672L28.3809 138.502C28.4247 138.353 28.5235 138.231 28.6771 138.135C28.8855 137.985 29.1214 137.943 29.3848 138.007C29.6591 138.049 29.8785 138.188 30.0431 138.422C30.1637 138.582 30.2351 138.753 30.257 138.934L30.1747 136.056Z" fill="#443B3E"/>
    <path d="M33.0017 130.085C33.0941 128.751 32.2668 127.89 32.2668 127.89L32.2484 127.888C32.2484 127.888 31.2348 128.513 30.9949 129.83L29.131 128.882C29.131 128.882 28.4231 132.142 31.4338 133.044L31.8024 133.087C34.9478 132.914 35.0659 129.584 35.0659 129.584L33.0017 130.085Z" fill="#68578A"/>
    <path d="M38.7402 89.6384L46.7952 85.543L51.9634 88.1675L52.494 90.114L49.0169 93.1305L41.0718 92.9253L38.7402 89.6384Z" fill="#747B47"/>
    <path d="M31.4746 85.8839C31.4746 85.8839 35.2477 81.8763 40.2159 86.2359C40.9487 86.8789 42.678 89.1671 42.678 89.1671L41.6602 89.9324C41.6602 89.9324 37.7898 88.2825 36.8926 86.6813C35.3127 83.8616 31.4746 85.8839 31.4746 85.8839Z" fill="#596033"/>
    <path d="M43.0376 89.5777C42.9719 88.3049 41.3965 86.2695 41.3965 86.2695C42.045 85.1688 42.6727 86.4713 42.6727 86.4713L43.6484 89.548C43.6484 89.548 43.0452 89.7262 43.0376 89.5777Z" fill="#596033"/>
    <path d="M44.7911 88.9966C45.2515 87.6427 44.1934 84.8163 44.1934 84.8163C45.4522 83.9627 45.665 85.6003 45.665 85.6003L45.5492 89.2404C45.5492 89.2404 44.7373 89.1546 44.7911 88.9966Z" fill="#596033"/>
    <path d="M45.4249 96.8338C45.4249 96.8338 43.2008 96.8964 42.5235 94.9978C41.3102 91.5971 37.8597 92.1615 37.8597 92.1615C37.8463 91.7099 38.2152 91.1208 38.5264 90.8606C38.9411 90.5139 40.8829 89.4811 40.7322 89.9254C40.1917 91.5186 43.7288 89.5259 45.3439 89.7813L45.4249 96.8338Z" fill="#ECC12F"/>
    <path d="M45.5355 96.2337L45.7619 96.2274C46.2031 96.215 46.5711 96.5527 46.5839 96.9817L46.6064 97.7376C46.6192 98.1666 46.2719 98.5245 45.8307 98.5369L45.7327 99.0501C45.2915 99.0625 44.7951 98.2179 44.7823 97.7889L44.7598 97.033" fill="#ECCDDD"/>
    <path d="M59.1376 85.2374C59.1376 85.2374 55.1323 81.4485 50.432 86.0799C49.7387 86.763 48.1484 89.1445 48.1484 89.1445L49.2101 89.8513C49.2101 89.8513 52.9757 87.9868 53.7762 86.3378C55.1856 83.4342 59.1376 85.2374 59.1376 85.2374Z" fill="#596033"/>
    <path d="M47.8128 89.5744C47.8025 88.3 49.2542 86.1795 49.2542 86.1795C48.5412 85.1171 47.9922 86.4527 47.9922 86.4527L47.2012 89.5791C47.2012 89.5791 47.814 89.7231 47.8128 89.5744Z" fill="#596033"/>
    <path d="M46.0277 89.0941C45.4874 87.7683 46.3756 84.8872 46.3756 84.8872C45.068 84.1057 44.9531 85.7525 44.9531 85.7525L45.2854 89.38C45.2854 89.38 46.0908 89.2487 46.0277 89.0941Z" fill="#596033"/>
    <path d="M45.2119 97.2056C45.2119 97.2056 47.9437 96.6644 48.507 94.7309C49.5158 91.2678 53.1384 91.9292 53.1384 91.9292C53.125 91.4776 52.7216 90.9102 52.3954 90.6679C51.9607 90.3451 49.9608 89.4232 50.1376 89.8582C50.772 91.4184 46.7336 89.0189 43.6602 89.969L45.2119 97.2056Z" fill="#ECC12F"/>
    <path d="M46.0412 95.9934C46.7773 93.4178 45.5857 92.1437 45.5857 92.1437C45.5857 92.1437 44.0263 90.8001 42.9499 91.9893C42.9499 91.9893 42.8642 92.3636 44.5528 93.1929C46.629 94.2125 45.7915 96.4402 45.7915 96.4402C45.7915 96.4402 46.0062 96.1159 46.0412 95.9934Z" fill="#CFAA3F"/>
    <path d="M55.5719 86.4984C55.5719 86.4984 59.6227 83.3417 63.8164 83.3917C63.8164 83.3917 60.0923 85.7588 57.61 87.0865C55.1276 88.4142 55.5719 86.4984 55.5719 86.4984Z" fill="#596033"/>
    <path d="M51.3594 87.5513C51.3594 87.5513 56.9605 70.3079 63.1875 68.3154C58.9857 71.1396 54.0592 87.8914 54.0592 87.8914L51.3594 87.5513Z" fill="#747B47"/>
    <path d="M37.5825 85.256C37.5825 85.256 32.8493 78.5306 27.4355 80.6628C27.4355 80.6628 32.5361 81.0175 35.1794 86.2623C36.7131 89.3056 37.5825 85.256 37.5825 85.256Z" fill="#747B47"/>
    <path d="M39.4448 87.0799C39.4448 87.0799 36.7985 71.2322 27.2344 71.3705C35.5994 74.8325 36.3252 85.6684 36.3252 85.6684L39.4448 87.0799Z" fill="#747B47"/>
    <path d="M53.0195 88.569C53.5294 79.4687 64.2408 73.636 63.8587 74.5926C62.491 76.3572 56.8159 80.2072 56.1944 88.3505C56.1944 88.3505 54.187 88.4887 53.0195 88.569Z" fill="#596033"/>
    <path d="M41.7764 76.2871C41.7764 76.2871 45.8105 79.7745 44.0262 88.0286L43.5021 88.0433C43.5021 88.0433 44.9447 79.4049 40.5098 76.3434L41.7764 76.2871Z" fill="#596033"/>
    <path d="M45.3401 67.291C45.3401 67.291 45.1862 64.7371 44.2415 63.9233C44.2415 63.9233 43.7402 67.3106 45.9728 69.9793L45.3401 67.291Z" fill="#747B47"/>
    <path d="M46.9567 73.8089L46.6812 72.7335C46.6812 72.7335 46.5528 72.4203 46.3767 72.686C46.2007 72.9517 46.2071 73.7126 46.2071 73.7126L46.6007 74.6208L46.9567 73.8089Z" fill="#D196BE"/>
    <path d="M48.5804 71.435C48.5804 71.435 48.5905 71.0672 48.5518 70.865C48.5131 70.6629 48.2938 70.8246 48.15 71.1661C48.0062 71.5076 48.2418 72.523 48.2418 72.523L48.5804 71.435Z" fill="#D196BE"/>
    <path d="M48.3307 75.9799C48.3307 75.9799 48.829 71.6712 48.7642 71.2924C48.6994 70.9136 48.7057 70.6733 48.7057 70.6733C48.7057 70.6733 48.0528 72.7385 47.9076 73.4978C47.7624 74.2572 47.4264 75.8869 47.6026 76.2419C47.7787 76.5969 47.9595 76.9559 48.3307 75.9799Z" fill="#838951"/>
    <path d="M48.5093 72.3192C48.4778 72.2676 48.084 70.9434 48.084 70.9434C48.084 70.9434 47.8012 72.7573 47.9196 73.6978C48.038 74.6383 48.5093 72.3192 48.5093 72.3192Z" fill="#838951"/>
    <path d="M46.2509 71.4719C46.2509 71.4719 46.5788 69.9209 46.4576 69.0692C46.3364 68.2175 45.4073 66.6328 45.4073 66.6328C45.4073 66.6328 45.0647 67.2071 45.2312 68.1259C45.2835 68.4149 45.8895 70.5513 45.8895 70.5513L46.2078 71.5739L46.2509 71.4719Z" fill="#838951"/>
    <path d="M47.5144 74.999C47.5144 74.999 47.1667 72.6814 46.7912 72.3427C46.4157 72.004 44.9356 69.4865 44.7734 69.0414L44.8213 68.7515C44.8213 68.7515 47.6707 71.0618 47.4717 72.4839L47.5144 74.999Z" fill="#747B47"/>
    <path d="M48.5691 76.7882L48.9195 76.1531L48.9886 74.9927C48.9886 74.9927 48.9272 74.4036 48.7204 74.7098C48.5136 75.016 47.9512 76.1655 47.9512 76.1655L47.9414 77.6813L48.5691 76.7882Z" fill="#D196BE"/>
    <path d="M46.676 80.9479L47.5649 80.5023C47.5649 80.5023 48.791 77.3357 48.9497 75.9395C48.9497 75.9395 47.2979 78.0831 46.9777 79.6935C46.6575 81.3039 46.676 80.9479 46.676 80.9479Z" fill="#747B47"/>
    <path d="M47.4481 79.2007L48.1662 77.6175C48.1662 77.6175 47.9727 76.0992 48.0301 75.6792C48.0301 75.6792 46.8401 79.0579 46.999 79.5896C47.1578 80.1213 47.4481 79.2007 47.4481 79.2007Z" fill="#747B47"/>
    <path d="M46.9297 72.5352C46.9297 72.5352 47.8594 76.5056 46.5938 79.9475L46.6706 80.9465L47.5612 78.4551C47.5612 78.4551 47.8301 77.577 47.8438 77.1269C47.9044 75.1426 47.3733 72.457 47.3733 72.457L46.9297 72.5352Z" fill="#747B47"/>
    <path d="M46.9039 77.339C46.9039 77.339 47.3757 76.6648 47.3637 75.5746C47.3516 74.4843 47.195 73.106 47.195 73.106L46.5449 74.1318L46.9039 77.339Z" fill="#838951"/>
    <path d="M46.5941 79.9477C46.5941 79.9477 45.916 74.2373 46.2006 72.9512C46.2006 72.9512 47.6618 75.8133 47.2126 77.6592C47.1477 77.9257 47.5022 78.5151 47.4486 78.726C47.1315 79.9757 46.5941 79.9477 46.5941 79.9477Z" fill="#747B47"/>
    <path d="M42.7227 87.7186C42.7227 87.7186 42.8878 79.2612 49.5879 78.2803L49.9832 81.0146L42.7227 87.7186Z" fill="#596033"/>
    <path d="M53.9878 71.4006L54.4849 71.0366C54.4849 71.0366 54.9679 70.4762 55.0238 69.8837C55.0797 69.2913 54.526 69.7733 54.526 69.7733L53.8496 70.3527L53.8961 71.3782L53.9878 71.4006Z" fill="#D196BE"/>
    <path d="M52.9357 67.9198L53.1179 66.5599C53.1179 66.5599 53.1191 65.4673 52.7545 66.3602C52.3899 67.2531 52.334 67.4824 52.3856 67.7854C52.4371 68.0885 52.9357 67.9198 52.9357 67.9198Z" fill="#D196BE"/>
    <path d="M55.3574 66.5865L55.7336 66.2039L56.0659 64.7192L55.6988 64.9326L55.3574 66.5865Z" fill="#D196BE"/>
    <path d="M54.7591 65.2052C54.7591 65.2052 54.9491 64.6733 55.1545 64.2815C55.3599 63.8897 55.8529 63.3409 55.881 62.9816C55.909 62.6222 55.9256 62.4874 55.7232 62.5516C55.5208 62.6158 55.2487 62.6124 55.1685 63.0727C55.0884 63.5329 55.0914 63.8224 55.0914 63.8224L55.0613 63.2359C55.0613 63.2359 54.9666 63.1496 54.7429 63.5117C54.5192 63.8737 54.3292 64.2061 54.3194 64.5952C54.3097 64.9843 54.2564 65.3122 54.3727 65.5048C54.489 65.6974 54.8783 65.6491 54.8138 65.5472C54.7493 65.4453 54.7591 65.2052 54.7591 65.2052Z" fill="#D196BE"/>
    <path d="M52.2823 73.9942C52.1655 73.4421 52.7911 71.3502 52.801 70.8601C52.8108 70.3701 52.2807 69.104 52.2494 68.6228C52.218 68.1416 52.4221 66.9763 52.4907 66.862C52.4907 66.862 52.8153 67.3405 52.8011 67.6211C52.8011 67.6211 52.9488 66.9753 53.1605 66.4588C53.1605 66.4588 53.3009 67.6485 53.4059 67.9962C53.5109 68.3439 53.4084 69.4175 53.2933 69.7113C53.2933 69.7113 54.2785 66.5804 54.2476 65.9857C54.2168 65.391 54.2493 65.1148 54.2493 65.1148C54.2493 65.1148 54.639 65.2163 54.6233 65.4777C54.6233 65.4777 54.7032 65.1689 54.9051 65.0919C54.9051 65.0919 54.6247 66.5766 54.4316 66.9209C54.2385 67.2652 54.275 67.3751 54.275 67.3751C54.275 67.3751 54.5137 67.2567 54.661 66.8886C54.8082 66.5205 55.183 65.324 55.3361 65.1341C55.4893 64.9442 55.7616 64.7456 55.7616 64.7456C55.7616 64.7456 55.9456 66.4448 55.3577 67.1093C54.7697 67.7738 54.4979 67.5685 54.3785 67.7287C54.259 67.889 53.9457 68.8984 53.8169 69.1953C53.688 69.4921 53.2331 71.1993 53.1808 71.4012C53.1808 71.4012 53.5246 70.4245 54.2193 69.9502C54.2193 69.9502 54.2241 70.8354 53.988 71.3459C53.988 71.3459 54.144 71.2451 54.3918 71.1415C54.3918 71.1415 53.6896 72.5989 53.2393 73.1834C52.7891 73.7679 52.3462 74.2963 52.2823 73.9942Z" fill="#747B47"/>
    <path d="M54.2012 76.6553L54.4652 75.5361L57.2993 74.6594C57.2993 74.6594 58.4386 74.3439 58.7609 76.3348C58.7609 76.3348 58.887 76.759 59.1115 76.9111C59.336 77.0633 58.6667 77.7574 58.6667 77.7574C58.6667 77.7574 58.6372 78.6046 57.6084 78.6898C56.5795 78.7749 54.2012 76.6553 54.2012 76.6553Z" fill="#A2589A"/>
    <path d="M54.2003 76.6556L50.4972 76.4141C50.4972 76.4141 49.9844 76.4963 50.1229 75.898C50.2615 75.2998 50.0143 74.2786 49.1396 74.2714C48.2649 74.2642 49.2026 73.3651 50.037 73.3046C50.8714 73.244 50.8044 72.9981 50.8044 72.9981C50.8044 72.9981 51.7849 72.3067 52.4819 73.6105C53.1789 74.9143 54.5292 75.8905 54.5292 75.8905L54.2003 76.6556Z" fill="#A2589A"/>
    <path d="M53.8378 76.3303C53.8378 76.3303 54.214 75.8426 53.3448 75.5937C52.4755 75.3449 52.2803 73.5736 52.6703 72.5792C53.0603 71.5849 54.1141 70.9276 55.6294 70.8675C57.1448 70.8074 58.1986 70.1501 57.9533 70.7596C57.9533 70.7596 57.6692 71.2402 57.8474 71.8342C58.0678 72.5688 57.3922 73.8843 57.3922 73.8843C57.3922 73.8843 57.309 74.3136 57.2967 74.6598C57.2843 75.006 56.5932 76.2725 55.3693 75.9412C54.1454 75.6099 54.3674 76.7699 54.3674 76.7699C54.3674 76.7699 53.7699 77.0785 53.8378 76.3303Z" fill="#852984"/>
    <path d="M50.1791 74.5282C49.8011 74.1336 49.2456 74.1476 48.8711 74.2178C48.9276 74.2505 49.0148 74.2705 49.1406 74.2715C50.0153 74.2787 50.2625 75.2999 50.1239 75.8981C50.0992 76.0047 50.0959 76.0889 50.106 76.1566C50.3183 75.7472 50.6155 74.9836 50.1791 74.5282Z" fill="#852984"/>
    <path d="M54.2858 75.9801C54.2858 75.9801 53.6797 74.421 55.1943 73.248C55.1943 73.248 54.3493 74.7115 54.2858 75.9801Z" fill="#712B78"/>
    <path d="M54.4297 76.5379C54.4297 76.5379 55.5807 76.4425 57.105 77.0165C57.105 77.0165 55.7994 76.1769 54.4297 76.5379Z" fill="#974E96"/>
    <path d="M53.7651 76.3264C53.7651 76.3264 52.9062 75.5759 51.334 75.1406C51.334 75.1406 52.8966 75.2359 53.7651 76.3264Z" fill="#974E96"/>
    <path d="M54.3692 75.1917C54.3691 75.1058 54.3813 75.048 54.405 75.0474C54.4292 75.0468 54.4739 75.1205 54.5236 75.2568C54.5666 75.375 54.5334 75.4861 54.4919 75.4938C54.4504 75.5014 54.3837 75.4094 54.3734 75.2844C54.3725 75.2733 54.372 75.2628 54.3713 75.2523C54.2477 75.2809 53.8088 75.4787 54.1002 76.8424L54.024 76.8005C54.024 76.8005 53.6628 75.3648 54.3692 75.1917Z" fill="#ABA142"/>
    <path d="M55.0994 75.4647C55.1427 75.3899 55.1826 75.3453 55.2036 75.3561C55.2249 75.3671 55.2266 75.4527 55.2009 75.595C55.1786 75.7186 55.0935 75.7995 55.0535 75.7864C55.0135 75.7732 55.0019 75.6612 55.0562 75.5474C55.061 75.5373 55.0658 75.528 55.0706 75.5185C54.9485 75.4844 54.382 75.4081 54.0996 76.8432L54.0234 76.8013C54.0234 76.8013 54.2731 75.2266 55.0994 75.4647Z" fill="#ABA142"/>
    <path d="M54.9299 75.7857C54.9643 75.7066 54.9989 75.658 55.0209 75.6665C55.0434 75.6751 55.0549 75.76 55.0458 75.9042C55.0378 76.0294 54.9625 76.1191 54.9213 76.1103C54.8801 76.1016 54.8557 75.9916 54.8965 75.8726C54.9001 75.8621 54.9038 75.8522 54.9075 75.8423C54.7822 75.8216 54.2987 75.837 54.0181 77.2029L53.9648 77.1354C53.9648 77.1354 54.21 75.6768 54.9299 75.7857Z" fill="#ABA142"/>
    <path d="M53.6309 77.629C53.6309 77.629 54.5767 78.6386 54.0973 80.3061C54.0973 80.3061 54.7712 81.8968 56.5023 81.5664C58.2333 81.236 58.1026 81.7052 58.1026 81.7052C58.1026 81.7052 58.6393 80.7042 58.0041 79.8388C58.0041 79.8388 58.4316 79.1324 57.7638 78.334C56.801 77.183 54.2583 76.5205 54.2583 76.5205L53.8824 76.8667L53.6309 77.629Z" fill="#852984"/>
    <path d="M53.9134 76.8384L53.8824 76.8669L53.6309 77.6293C53.6309 77.6293 54.4112 78.5588 54.0973 80.3064C55.5582 78.2314 54.4766 77.3961 53.9134 76.8384Z" fill="#712B78"/>
    <path d="M54.0195 76.7444L54.0292 76.666C54.0292 76.666 56.05 77.0861 55.717 78.8684C55.574 77.9567 54.8166 76.9078 54.0195 76.7444Z" fill="#712B78"/>
    <path d="M53.9337 76.4514C53.9337 76.4514 53.4433 76.2959 53.2229 76.2035C52.0781 75.7237 50.7953 75.7876 50.1232 76.2919C49.087 77.0694 48.8325 79.0365 49.2976 79.7364C49.7627 80.4364 49.5727 80.6756 51.8404 80.5165C53.7413 80.383 53.7815 80.0569 53.858 79.4356C53.9168 78.958 54.4055 76.8955 53.9337 76.4514Z" fill="#852984"/>
    <path d="M53.6776 76.4219C52.9577 76.2329 52.0173 76.4424 51.8145 77.6812C51.8145 77.6812 52.3222 76.8669 53.165 76.508C53.4124 76.4027 53.7183 76.4326 53.6776 76.4219Z" fill="#712B78"/>
    <path d="M54.8445 84.5376L54.6953 85.749C54.6953 85.749 55.7866 86.2665 55.8638 86.2156C55.9409 86.1648 55.7382 84.9369 55.7382 84.9369L54.8445 84.5376Z" fill="#C1759E"/>
    <path d="M56.1731 85.1473C56.1731 85.1473 55.887 85.1049 55.903 85.0399C55.9347 84.9104 56.3182 84.6913 56.6225 84.5379C57.0798 84.3075 58.7377 83.5597 58.7377 83.5597C58.7377 83.5597 59.3814 83.5243 59.7011 84.6146C59.7011 84.6146 59.835 84.5806 59.9912 85.0241C60.1473 85.4676 59.8227 85.734 59.8227 85.734C59.8227 85.734 59.8243 87.0368 59.3858 87.1749C58.9472 87.3129 56.3598 86.193 56.1731 85.1473Z" fill="#F991C7"/>
    <path d="M56.123 79.0093C56.123 79.0093 56.2489 79.1721 56.4212 79.3814C56.3447 79.1993 56.2378 79.0655 56.123 79.0093Z" fill="#E2B4CE"/>
    <path d="M58.0352 81.3493C57.8141 80.5767 57.5909 80.4141 57.2897 80.2727C57.1031 80.1852 56.7 79.722 56.4199 79.3818C56.6716 79.9815 56.5887 81.112 55.331 81.7803C53.6914 82.6515 53.6133 85.0446 53.6133 85.0446C53.6133 85.0446 55.263 83.6597 55.1874 84.6242C55.1762 84.7679 55.251 84.8792 55.3722 84.9609C55.5727 85.1654 55.5401 85.315 55.5401 85.315C55.5401 85.315 55.5579 85.3683 55.7311 85.3771C55.8383 85.3825 55.9966 85.2398 56.1019 85.1301C56.1966 85.1274 56.2891 85.1174 56.3734 85.0993C56.7042 85.0282 56.9467 84.5583 57.3499 84.2928C57.6925 84.0672 58.1167 83.7226 58.3103 83.4593C59.0627 82.4362 58.2562 82.1218 58.0352 81.3493Z" fill="#FFCCEC"/>
    <path d="M56.1738 85.3216C56.1738 85.3216 56.7626 85.7541 58.1035 85.2939L56.1738 85.3216Z" fill="#C1759E"/>
    <path d="M58.8317 88.1877C58.8343 88.1876 58.8328 87.9805 58.8468 87.9311C58.9481 87.5735 59.2148 87.3487 58.4983 86.6706C57.1207 85.3666 55.6914 85.29 55.6914 85.29L54.8145 85.6698L55.2497 87.4823C55.2497 87.4823 55.656 87.7012 56.2866 88.2592L58.8317 88.1877Z" fill="#FFCCEC"/>
    <path d="M53.8988 85.8145C53.8988 85.8145 53.1138 86.4865 53.8952 87.9476C54.6766 89.4087 53.7603 89.8997 53.7603 89.8997C53.7603 89.8997 54.939 90.4292 55.8516 89.6877C56.2681 89.677 56.5896 89.3617 56.6902 88.9463C57.1525 87.0388 54.9025 84.7235 53.8988 85.8145Z" fill="#DCA0C2"/>
    <path d="M56.3237 80.8361C56.1174 81.2385 54.9453 82.0361 54.9453 82.0361C54.9453 82.0361 56.8311 81.7413 57.0701 80.9087C57.3092 80.0761 57.2954 79.718 56.9849 79.3038C56.6743 78.8896 56.1239 79.0099 56.1239 79.0099C56.1239 79.0099 56.8484 79.8126 56.3237 80.8361Z" fill="#D279A4"/>
    <path d="M55.7871 84.7766C55.7871 84.7766 56.7049 84.2493 56.5951 82.7715C56.5951 82.7715 57.0559 84.8532 55.7871 84.7766Z" fill="#D9A5C4"/>
    <path d="M54.5385 88.738C54.5039 88.5854 54.1975 88.2685 53.9292 88.0146C54.6461 89.4226 53.7598 89.8989 53.7598 89.8989C54.807 90.1023 54.6013 89.015 54.5385 88.738Z" fill="#D279A4"/>
    <path d="M55.7996 85.4697C55.7996 85.4697 57.7154 86.0443 57.499 87.2721C57.499 87.2721 57.2103 86.1673 55.6928 85.534C54.1752 84.9008 55.7996 85.4697 55.7996 85.4697Z" fill="#D9A5C4"/>
    <path d="M54.9411 84.1394L54.2363 82.6273L54.3692 81.836C54.3692 81.836 54.7823 81.6122 55.0429 83.8165C55.3066 86.0468 54.9411 84.1394 54.9411 84.1394Z" fill="#D9A5C4"/>
    <path d="M55.2588 86.0204C55.2588 86.0204 55.8788 87.3825 55.3255 88.5311C55.3255 88.5311 56.2717 87.2427 55.5029 86.0488C54.734 84.8549 55.2588 86.0204 55.2588 86.0204Z" fill="#D196BE"/>
    <path d="M54.6571 81.8354C54.6571 81.8354 54.4683 82.6999 53.8195 84.4681C53.1117 86.3974 54.1017 87.0481 54.1017 87.0481C54.723 87.1374 54.942 86.9723 55.8731 86.1511C56.4095 85.678 57.3006 85.1674 55.7462 84.1202C54.4773 83.0458 54.6571 81.8354 54.6571 81.8354Z" fill="#F991C7"/>
    <path d="M38.1365 71.041L38.3845 70.3083C38.3845 70.3083 38.4706 69.38 38.0854 68.72C37.7003 68.0601 37.4814 68.9563 37.4814 68.9563L37.207 70.0413L38.0237 71.0823L38.1365 71.041Z" fill="#A2589A"/>
    <path d="M34.4325 68.1369L33.6048 66.5839C33.6048 66.5839 32.7879 65.4389 33.0747 66.6317C33.3616 67.8245 33.4748 68.104 33.7557 68.385C34.0366 68.6659 34.4325 68.1369 34.4325 68.1369Z" fill="#A2589A"/>
    <path d="M35.8781 65.239L35.8875 64.5643L34.871 62.8975L34.7188 63.4064L35.8781 65.239Z" fill="#A2589A"/>
    <path d="M33.5783 64.3752C33.5783 64.3752 33.2092 63.7532 32.9919 63.2338C32.7746 62.7144 32.6416 61.7946 32.3084 61.4684C31.9752 61.1421 31.8552 61.0141 31.75 61.2572C31.6447 61.5004 31.4143 61.7524 31.8041 62.2117C32.1939 62.6709 32.4837 62.9097 32.4837 62.9097L31.8765 62.4483C31.8765 62.4483 31.7119 62.465 31.8844 62.9767C32.057 63.4885 32.2282 63.9439 32.6061 64.2778C32.984 64.6117 33.265 64.9353 33.5531 64.9871C33.8413 65.039 34.1183 64.6341 33.9633 64.6095C33.8084 64.5848 33.5783 64.3752 33.5783 64.3752Z" fill="#A2589A"/>
    <path d="M37.2473 73.2629C37.2473 73.2629 36.8464 71.8326 36.4897 71.3124C36.1331 70.7922 34.6298 69.8411 34.2365 69.3593C33.8432 68.8776 33.1844 67.513 33.1705 67.3447C33.1705 67.3447 33.8688 67.6164 34.0641 67.9203C34.0641 67.9203 33.7351 67.1396 33.57 66.449C33.57 66.449 34.6081 67.5957 34.9784 67.8856C35.3487 68.1754 36.0454 69.3721 36.145 69.7613C36.145 69.7613 35.3854 66.29 34.0495 65.7251C33.3328 65.422 32.9004 64.5574 32.9004 64.5574C32.9004 64.5574 33.3845 64.3882 33.5638 64.673C33.5638 64.673 33.4162 64.2931 33.57 64.0698C33.57 64.0698 35.1916 65.5374 35.2472 66.0344C35.3028 66.5315 35.4234 66.6208 35.4234 66.6208C35.4234 66.6208 35.5846 66.328 35.4632 65.8384C35.3417 65.3488 34.6513 64.135 34.6694 63.8279C34.6876 63.5208 34.693 63.1055 34.693 63.1055C34.693 63.1055 36.3407 64.5196 36.2226 65.6311C36.1046 66.7426 35.8017 66.6657 35.7966 66.918C35.7915 67.1702 36.2193 68.4488 36.3067 68.8507C36.3941 69.2527 37.1963 71.3621 37.2928 71.6105C37.2928 71.6105 36.9213 70.3446 37.2936 69.3569C37.2936 69.3569 37.9616 70.2804 38.0966 70.982C38.0966 70.982 38.1846 70.7661 38.3665 70.4824C38.3665 70.4824 38.7226 72.5051 38.6888 73.4355C38.655 74.3659 37.2473 73.2629 37.2473 73.2629Z" fill="#747B47"/>
    <path d="M41.3352 75.8342L40.7227 74.6018L42.6874 71.735C42.6874 71.735 43.5056 70.617 45.3319 72.2361C45.3319 72.2361 45.7745 72.5395 46.1 72.5186C46.4255 72.4977 46.335 73.6278 46.335 73.6278C46.335 73.6278 46.9572 74.4374 46.0652 75.2613C45.1732 76.0851 41.3352 75.8342 41.3352 75.8342Z" fill="#FFCCEC"/>
    <path d="M41.3331 75.8335L37.7025 78.2889C37.7025 78.2889 37.2884 78.7364 36.9586 78.0795C36.6288 77.4226 35.6159 76.6514 34.7966 77.2777C33.9772 77.9041 34.1603 76.3888 34.8902 75.7287C35.6201 75.0685 35.3692 74.8882 35.3692 74.8882C35.3692 74.8882 35.7513 73.5353 37.3995 74.2439C39.0477 74.9526 41.0525 74.8836 41.0525 74.8836L41.3331 75.8335Z" fill="#FFCCEC"/>
    <path d="M41.7041 75.3859C41.7041 75.3859 41.1803 74.8676 42.1667 74.4401C43.1531 74.0127 43.0957 71.8902 42.4733 70.7754C41.8508 69.6606 40.499 69.0459 38.6991 69.2075C36.8991 69.3691 35.5473 68.7544 35.9362 69.4367C35.9362 69.4367 36.35 69.9608 36.2361 70.69C36.0951 71.5916 37.1073 73.042 37.1073 73.042C37.1073 73.042 37.2753 73.5364 37.3462 73.9435C37.4171 74.3506 38.4395 75.7407 39.8315 75.1614C41.2235 74.5821 41.15 75.9866 41.15 75.9866C41.15 75.9866 41.9059 76.2595 41.7041 75.3859Z" fill="#F991C7"/>
    <path d="M35.9589 76.7653C35.3047 76.6718 34.7985 77.0869 34.5039 77.4232C34.5816 77.4128 34.678 77.3682 34.7959 77.2781C35.6152 76.6518 36.6281 77.423 36.9579 78.0799C37.0167 78.197 37.0781 78.2777 37.1394 78.3334C37.023 77.7989 36.7142 76.8733 35.9589 76.7653Z" fill="#C1759E"/>
    <path d="M40.836 75.0417C40.836 75.0417 41.5836 73.1068 39.6035 71.9536C39.6035 71.9536 40.5546 73.5528 40.836 75.0417Z" fill="#C1759E"/>
    <path d="M41.457 75.5578C41.457 75.5578 42.4547 74.636 44.3131 74.0669C44.3131 74.0669 42.4546 74.2306 41.457 75.5578Z" fill="#D9A5C4"/>
    <path d="M40.675 75.8426C40.675 75.8426 39.3005 75.7659 37.5039 76.4988C37.5039 76.4988 39.0308 75.4565 40.675 75.8426Z" fill="#D9A5C4"/>
    <path d="M40.866 73.8897C40.8343 73.7921 40.8269 73.7221 40.8537 73.7132C40.8809 73.7041 40.9589 73.7725 41.0654 73.9102C41.1579 74.0297 41.161 74.1676 41.1166 74.1906C41.0723 74.2137 40.9626 74.1323 40.9048 73.9937C40.8997 73.9814 40.8953 73.9697 40.8907 73.9579C40.7607 74.0333 40.3344 74.4106 41.1671 75.8601L41.0651 75.8389C41.0651 75.8389 40.1264 74.3319 40.866 73.8897Z" fill="#E2BF81"/>
    <path d="M41.7966 73.9455C41.8183 73.8454 41.8473 73.7809 41.8751 73.7859C41.9035 73.791 41.9368 73.8878 41.96 74.0585C41.9801 74.2068 41.913 74.3283 41.8627 74.3272C41.8124 74.3262 41.7581 74.2029 41.7779 74.0546C41.7796 74.0415 41.7817 74.0292 41.7836 74.0167C41.6323 74.0203 40.9601 74.1303 41.1668 75.86L41.0647 75.8388C41.0647 75.8388 40.7695 73.9616 41.7966 73.9455Z" fill="#E2BF81"/>
    <path d="M41.7232 74.3703C41.7332 74.2685 41.7546 74.2012 41.7828 74.2032C41.8116 74.2052 41.8559 74.2977 41.8985 74.4649C41.9355 74.61 41.8828 74.7381 41.8327 74.7425C41.7827 74.7468 41.7144 74.6302 41.7171 74.4807C41.7173 74.4675 41.7179 74.4551 41.7185 74.4425C41.5684 74.4625 41.0243 74.6478 41.2076 76.2983L41.1222 76.24C41.1222 76.24 40.8645 74.4964 41.7232 74.3703Z" fill="#E2BF81"/>
    <path d="M41.5497 77.1519C41.5497 77.1519 43.2037 77.4067 44.0364 79.3051C44.0364 79.3051 45.8829 80.2974 47.2402 78.7372C48.5974 77.177 48.8355 77.7081 48.8355 77.7081C48.8355 77.7081 48.5675 76.3884 47.3129 76.0429C47.3129 76.0429 47.1691 75.0762 45.9356 74.8167C44.1573 74.4426 41.2835 75.6664 41.2835 75.6664L41.1992 76.2606L41.5497 77.1519Z" fill="#F991C7"/>
    <path d="M41.2062 76.2114L41.1992 76.2604L41.5497 77.1517C41.5497 77.1517 42.9885 77.4519 44.0364 79.305C43.8046 76.3171 42.1578 76.3227 41.2062 76.2114Z" fill="#B36392"/>
    <path d="M41.2346 76.0471L41.1836 75.9672C41.1836 75.9672 43.3859 74.8956 44.4426 76.7949C43.6105 76.0501 42.1015 75.6224 41.2346 76.0471Z" fill="#C1759E"/>
    <path d="M41.2131 75.8369C41.2131 75.8369 40.6376 76.0472 40.3618 76.1207C38.9287 76.5028 37.7842 77.4906 37.5455 78.4463C37.1775 79.9195 38.449 81.9339 39.4184 82.2486C40.3877 82.5632 40.3944 82.9234 42.3823 81.1341C44.0486 79.6342 43.8359 79.3017 43.4308 78.6683C43.1193 78.1813 41.9926 75.9087 41.2131 75.8369Z" fill="#F991C7"/>
    <path d="M40.6678 75.994C39.8531 76.3392 39.1388 77.2146 39.8999 78.5141C39.8999 78.5141 39.748 77.3889 40.257 76.4451C40.4064 76.168 40.7139 75.9745 40.6678 75.994Z" fill="#C1759E"/>
    <path d="M45.1006 84.7685C45.1006 84.7685 44.5092 80.1369 45.8315 77.9336C45.8315 77.9336 46.4293 81.7666 46.0258 84.4549C45.6223 87.1431 45.1006 84.7685 45.1006 84.7685Z" fill="#747B47"/>
    <path d="M39.8989 85.7302L39.75 84.4047L42.5157 82.3949C42.5157 82.3949 43.642 81.6275 44.7756 83.6924C44.7756 83.6924 45.0801 84.1111 45.386 84.195C45.6918 84.2789 45.2296 85.2878 45.2296 85.2878C45.2296 85.2878 45.5292 86.2282 44.4338 86.7021C43.3384 87.176 39.8989 85.7302 39.8989 85.7302Z" fill="#A2589A"/>
    <path d="M39.9006 85.7303L35.7434 86.8348C35.7434 86.8348 35.2131 87.1145 35.1307 86.407C35.0483 85.6994 34.3771 84.6705 33.4147 84.9861C32.4523 85.3017 33.1287 83.9685 34.0203 83.5936C34.912 83.2186 34.7422 82.9736 34.7422 82.9736C34.7422 82.9736 35.5469 81.8525 36.8224 83.0251C38.0978 84.1977 39.9616 84.7692 39.9616 84.7692L39.9006 85.7303Z" fill="#A2589A"/>
    <path d="M40.1375 85.3236C40.1375 85.3236 39.8173 84.6879 40.8645 84.5874C41.9117 84.4869 42.5304 82.5076 42.3077 81.291C42.0851 80.0744 41.0299 79.1024 39.3147 78.7141C37.5996 78.3258 36.5444 77.3537 36.688 78.1007C36.688 78.1007 36.9047 78.7089 36.5685 79.3489C36.1529 80.1403 36.6296 81.7836 36.6296 81.7836C36.6296 81.7836 36.6286 82.2908 36.5653 82.6883C36.502 83.0859 37.0072 84.6764 38.4774 84.5567C39.9476 84.4369 39.4352 85.7134 39.4352 85.7134C39.4352 85.7134 40.0477 86.1914 40.1375 85.3236Z" fill="#852984"/>
    <path d="M34.6562 84.8833C34.0869 84.5903 33.4829 84.8111 33.0996 85.0265C33.1745 85.0416 33.2779 85.0312 33.4163 84.9858C34.3787 84.6702 35.05 85.6991 35.1323 86.4066C35.147 86.5327 35.1764 86.6263 35.214 86.6969C35.2864 86.1692 35.3134 85.2216 34.6562 84.8833Z" fill="#852984"/>
    <path d="M39.707 84.8307C39.707 84.8307 40.7468 83.18 39.2813 81.5225C39.2813 81.5225 39.9181 83.3702 39.707 84.8307Z" fill="#712B78"/>
    <path d="M40.1055 85.5165C40.1055 85.5165 41.3308 84.9861 43.2279 85.0522C43.2279 85.0522 41.4667 84.6139 40.1055 85.5165Z" fill="#974E96"/>
    <path d="M39.2937 85.5306C39.2937 85.5306 38.0575 85.0249 36.1621 85.1288C36.1621 85.1288 37.9137 84.6554 39.2937 85.5306Z" fill="#974E96"/>
    <path d="M39.5101 84.0621C39.4764 83.968 39.4671 83.9 39.4929 83.8906C39.5192 83.881 39.5971 83.9454 39.705 84.0765C39.7985 84.1903 39.8056 84.3245 39.7631 84.3482C39.7206 84.3719 39.6113 84.2956 39.551 84.1623C39.5457 84.1505 39.541 84.1392 39.5362 84.1278C39.4118 84.2049 39.0078 84.5842 39.8617 85.9725L39.7617 85.9548C39.7617 85.9548 38.803 84.5134 39.5101 84.0621Z" fill="#ABA142"/>
    <path d="M40.4206 84.0904C40.4388 83.9924 40.4651 83.9287 40.4923 83.9328C40.5201 83.937 40.5554 84.0303 40.583 84.1959C40.607 84.3397 40.5453 84.46 40.4963 84.4603C40.4472 84.4607 40.3907 84.3421 40.4056 84.1972C40.4069 84.1844 40.4085 84.1723 40.4101 84.1601C40.2627 84.1679 39.6114 84.2937 39.8638 85.9724L39.7639 85.9546C39.7639 85.9546 39.4208 84.1348 40.4206 84.0904Z" fill="#ABA142"/>
    <path d="M40.3609 84.5058C40.3677 84.4063 40.3865 84.3402 40.414 84.3413C40.4421 84.3425 40.488 84.4313 40.5344 84.593C40.5748 84.7333 40.5273 84.8594 40.4786 84.8651C40.43 84.8708 40.3601 84.7591 40.3582 84.6135C40.3581 84.6006 40.3583 84.5884 40.3584 84.5761C40.2129 84.5998 39.6885 84.7955 39.9158 86.3977L39.8309 86.3433C39.8309 86.3433 39.5284 84.6525 40.3609 84.5058Z" fill="#ABA142"/>
    <path d="M39.6575 87.0086C39.6575 87.0086 41.0906 87.7663 41.2181 89.773C41.2181 89.773 42.5806 91.2688 44.3502 90.2662C46.1198 89.2636 46.1602 89.8267 46.1602 89.8267C46.1602 89.8267 46.3569 88.5301 45.3209 87.8156C45.3209 87.8156 45.5132 86.8825 44.4678 86.2536C42.9606 85.3469 39.9115 85.5605 39.9115 85.5605L39.6348 86.0793L39.6575 87.0086Z" fill="#852984"/>
    <path d="M39.6576 86.0361L39.6348 86.0789L39.6575 87.0082C39.6575 87.0082 40.8778 87.7394 41.2181 89.7727C42.0078 86.9561 40.494 86.4397 39.6576 86.0361Z" fill="#712B78"/>
    <path d="M39.7349 85.8954L39.7148 85.8059C39.7148 85.8059 42.0963 85.5194 42.4293 87.5979C41.9152 86.6505 40.6733 85.78 39.7349 85.8954Z" fill="#712B78"/>
    <path d="M39.5286 85.605C39.5286 85.605 38.9297 85.6159 38.6518 85.596C37.2078 85.4929 35.8256 86.0375 35.2858 86.8393C34.4537 88.0753 34.9452 90.3275 35.7296 90.9233C36.5141 91.5192 36.3994 91.852 38.8248 90.8387C40.8579 89.9894 40.7742 89.6167 40.6148 88.9069C40.4922 88.3611 40.2202 85.9178 39.5286 85.605Z" fill="#852984"/>
    <path d="M39.2357 85.6661C38.3719 85.725 37.4224 86.3025 37.6852 87.7366C37.6852 87.7366 37.9232 86.6555 38.7071 85.9501C38.9373 85.7431 39.2845 85.6628 39.2357 85.6661Z" fill="#712B78"/>
    <path d="M48.74 84.9159L49.1358 83.8339L47.2293 81.6159C47.2293 81.6159 46.4425 80.7555 45.0704 82.267C45.0704 82.267 44.7296 82.5591 44.4561 82.5704C44.1827 82.5816 44.3637 83.5162 44.3637 83.5162C44.3637 83.5162 43.9203 84.2464 44.7413 84.8549C45.5622 85.4635 48.74 84.9159 48.74 84.9159Z" fill="white"/>
    <path d="M48.7383 84.9166L51.9959 86.6445C51.9959 86.6445 52.3831 86.9813 52.5968 86.4043C52.8105 85.8273 53.5834 85.0947 54.3253 85.5449C55.0671 85.9951 54.773 84.7474 54.1025 84.2611C53.432 83.7748 53.6244 83.6023 53.6244 83.6023C53.6244 83.6023 53.1794 82.5075 51.8708 83.2439C50.5623 83.9803 48.8837 84.0995 48.8837 84.0995L48.7383 84.9166Z" fill="white"/>
    <path d="M48.5885 84.6317C48.5885 84.6317 48.9581 84.1392 48.0855 83.9016C47.213 83.6639 46.9935 81.8953 47.3699 80.896C47.7463 79.8967 48.7911 79.2259 50.3055 79.1463C51.8199 79.0667 52.8646 78.3959 52.6277 79.0085C52.6277 79.0085 52.3501 79.4927 52.5365 80.0844C52.7669 80.816 52.1092 82.1402 52.1092 82.1402C52.1092 82.1402 52.0319 82.5705 52.0243 82.9168C52.0167 83.2632 51.343 84.5385 50.1146 84.2229C48.8863 83.9074 49.1241 85.0645 49.1241 85.0645C49.1241 85.0645 48.5309 85.3807 48.5885 84.6317Z" fill="#DAEFEE"/>
    <path d="M53.3109 85.2187C53.8478 85.0831 54.3088 85.3846 54.5859 85.6392C54.5201 85.6373 54.4355 85.6086 54.3289 85.5439C53.587 85.0937 52.8141 85.8263 52.6004 86.4033C52.5623 86.5061 52.5186 86.5788 52.4727 86.6307C52.5198 86.1746 52.691 85.3753 53.3109 85.2187Z" fill="#B3BFC1"/>
    <path d="M49.0267 84.2763C49.0267 84.2763 48.3995 82.7251 49.8979 81.5327C49.8979 81.5327 49.0729 83.007 49.0267 84.2763Z" fill="#B3BFC1"/>
    <path d="M48.6133 84.6974C48.6133 84.6974 47.695 84.0165 46.0918 83.7056C46.0918 83.7056 47.6573 83.6784 48.6133 84.6974Z" fill="#CFD9D8"/>
    <path d="M49.2891 84.8653C49.2891 84.8653 50.4284 84.6801 51.9954 85.1331C51.9954 85.1331 50.6244 84.3983 49.2891 84.8653Z" fill="#CFD9D8"/>
    <path d="M49.528 83.4003C49.5798 83.3307 49.6047 83.2769 49.5858 83.2629C49.5666 83.2487 49.4859 83.283 49.3636 83.3653C49.2575 83.4368 49.2175 83.5457 49.2465 83.5755C49.2756 83.6052 49.3851 83.5686 49.4688 83.4731C49.4762 83.4646 49.4829 83.4564 49.4898 83.4482C49.5728 83.5417 49.8095 83.9516 48.752 84.8918L48.8072 84.9298C48.8072 84.9298 49.9966 83.9423 49.528 83.4003Z" fill="#978F3D"/>
    <path d="M48.7717 83.2045C48.7816 83.1192 48.7761 83.0604 48.7526 83.0572C48.7287 83.054 48.6758 83.1225 48.6108 83.2525C48.5545 83.3654 48.5748 83.4794 48.6152 83.4915C48.6555 83.5035 48.7323 83.4193 48.7569 83.2962C48.7591 83.2853 48.7608 83.275 48.7626 83.2645C48.8822 83.3063 49.3875 83.5665 48.7522 84.8907L48.8392 84.9001C48.8392 84.9001 49.5852 83.4812 48.7717 83.2045Z" fill="#978F3D"/>
    <path d="M48.7019 83.6561C48.7216 83.5724 48.7229 83.5134 48.6999 83.5077C48.6765 83.5019 48.616 83.5642 48.5366 83.6864C48.4676 83.7924 48.4747 83.9079 48.5134 83.9243C48.5521 83.9406 48.6381 83.8653 48.6767 83.7456C48.6801 83.735 48.683 83.7249 48.686 83.7148C48.8001 83.7692 49.1829 84.0566 48.5878 85.3237L48.6716 85.2993C48.6716 85.2993 49.3513 83.9771 48.7019 83.6561Z" fill="#978F3D"/>
    <path d="M48.6833 86.0351C48.6833 86.0351 47.3275 86.3934 46.8103 88.0503C46.8103 88.0503 45.3628 89.0407 44.085 87.859C42.8072 86.6773 42.6582 87.1413 42.6582 87.1413C42.6582 87.1413 42.7585 86.0169 43.7727 85.6181C43.7727 85.6181 43.8024 84.7992 44.807 84.474C46.2553 84.0051 48.7666 84.7726 48.7666 84.7726L48.8924 85.2607L48.6833 86.0351Z" fill="#DAEFEE"/>
    <path d="M48.8822 85.2197L48.8926 85.26L48.6835 86.0343C48.6835 86.0343 47.5114 86.4115 46.8105 88.0495C46.7247 85.537 48.0988 85.3965 48.8822 85.2197Z" fill="#B3BFC1"/>
    <path d="M48.7426 85.0396L48.7777 84.9685C48.7777 84.9685 46.8407 84.2688 46.1367 85.9461C46.7612 85.2515 48.0146 84.7781 48.7426 85.0396Z" fill="#B3BFC1"/>
    <path d="M49.0776 84.8838C49.0776 84.8838 49.5773 85.0085 49.8142 85.0455C51.0452 85.2378 52.0921 85.9609 52.3805 86.7369C52.825 87.9333 51.9526 89.7256 51.1734 90.0735C50.3943 90.4214 50.4223 90.7224 48.5971 89.4052C47.0672 88.3011 47.2135 88.0049 47.4923 87.4409C47.7066 87.0073 48.4342 85.0123 49.0776 84.8838Z" fill="#DAEFEE"/>
    <path d="M49.3106 84.992C50.0224 85.208 50.6999 85.8753 50.1865 87.0262C50.1865 87.0262 50.2081 86.0744 49.6954 85.332C49.5449 85.1141 49.2704 84.9798 49.3106 84.992Z" fill="#B3BFC1"/>
    <path d="M110.095 57.5562L117.015 65.3232L107.56 68.851L112.329 76.3699L104.941 79.8639L108.224 85.7847L101.066 88.7856L110.095 57.5562Z" fill="#161719"/>
    <path d="M110.854 127.206L121.186 133.941L121.179 128.575L115.699 128.835L115.017 122.481L108.879 124.267L106.962 117.35L99.3398 121.052L110.854 127.206Z" fill="#161719"/>
    <path d="M69.8182 73.7877L68.7539 72.883L71.2816 61.121L108.399 49.4883L110.129 51.5563C110.129 51.5563 112.818 51.8597 111.008 56.9427C109.198 62.0258 102.297 89.0016 100.568 95.852C98.8382 102.702 96.2547 115.973 97.8512 118.946C99.4476 121.918 111.95 126.116 118.497 130.888C126.724 136.886 125.954 139.902 125.954 139.902L121.836 137.897L113.854 134.924L82.7229 126.911L78.1996 101.965L69.8182 73.7877Z" fill="#FF6170"/>
    <path d="M69.818 70.0396C69.818 70.0396 67.8224 74.4341 68.8867 108.298C69.025 112.698 69.4189 126.652 77.8003 130.917C86.1817 135.183 92.1684 134.924 104.009 135.441C115.849 135.958 121.836 137.897 121.836 137.897C121.836 137.897 118.643 134.795 109.197 131.564C99.7516 128.332 83.654 128.332 84.9844 115.666C85.7148 108.711 96.7128 72.4858 96.7128 72.4858L69.818 70.0396Z" fill="#FFC502"/>
    <path d="M105.451 144.868L99.5178 140.268L86.9199 140.69L86.967 144.553L105.451 144.868Z" fill="#161719"/>
    <path d="M99.5189 141.197C99.2835 141.247 98.866 141.512 98.5806 141.708C98.4429 141.803 98.4628 142.006 98.6164 142.074L101.59 143.379C101.819 143.48 102.012 143.186 101.822 143.027L99.6964 141.247C99.6472 141.206 99.5824 141.184 99.5189 141.197Z" fill="#7E828E"/>
    <path d="M86.9759 144.093L86.9609 145.083L91.772 145.152L91.7869 144.162L86.9759 144.093Z" fill="#161719"/>
    <path d="M64.3789 144.727L70.2487 140.05L82.8512 140.309L82.8574 144.172L64.3789 144.727Z" fill="#161719"/>
    <path d="M70.2611 140.98C70.4972 141.026 70.9183 141.286 71.2064 141.478C71.3454 141.571 71.3283 141.775 71.1756 141.844L68.2199 143.188C67.9924 143.292 67.7953 143 67.9834 142.839L70.0843 141.032C70.133 140.99 70.1974 140.967 70.2611 140.98Z" fill="#7E828E"/>
    <path d="M82.8448 143.712L78.0352 143.843L78.0637 144.833L82.8734 144.702L82.8448 143.712Z" fill="#161719"/>
    <path d="M102.718 65.8159C102.718 65.8159 90.7317 90.2935 78.1647 88.4889C65.5977 86.6844 80.8482 51.3521 80.8482 51.3521L102.718 65.8159Z" fill="#FF6170"/>
    <path d="M99.1275 66.5096C99.1275 66.5096 89.1842 88.1671 78.7478 86.5653C68.3114 84.9636 80.9612 53.7012 80.9612 53.7012L99.1275 66.5096Z" fill="#3D161A"/>
    <path d="M88.2895 82.4487C88.2895 82.4487 83.4201 77.7197 74.6288 79.4841C74.5982 79.7679 74.2033 83.9837 76.9188 85.9401C78.8696 87.2397 84.0802 87.1762 88.2895 82.4487Z" fill="#791E1C"/>
    <path d="M93.528 72.3633L90.9686 78.2452L85.8436 75.1743L82.7147 79.4412L78.046 75.8346L74.1096 79.5012L70.2477 74.9915L70.1836 73.7907L92.9567 71.5947L93.528 72.3633Z" fill="white"/>
    <path d="M97.6922 68.7387C103.171 62.5775 106.787 49.5961 106.787 49.5961C106.787 49.5961 94.0829 46.1804 88.4494 44.6293C73.7185 40.5732 62.6772 39.5829 58.3939 48.7872C54.4302 57.3044 53.6408 70.0745 53.6426 70.0757C53.9701 70.3021 60.9094 72.7813 67.9568 73.8547C74.7539 74.89 90.2487 77.1085 97.6922 68.7387Z" fill="#FF6170"/>
    <path d="M70.8576 41.8878C71.2284 44.9325 69.6099 47.5335 67.2427 47.6972C64.8755 47.8609 62.656 45.5254 62.2853 42.4806C61.9146 39.4359 63.5331 36.8349 65.9003 36.6712C68.2675 36.5075 70.487 38.843 70.8576 41.8878Z" fill="#FF6170"/>
    <path d="M67.6221 41.3228C67.9494 42.6623 67.5167 43.9419 66.6556 44.181C65.7945 44.42 64.8311 43.5279 64.5038 42.1884C64.1765 40.8489 64.6092 39.5693 65.4703 39.3302C66.3314 39.0912 67.2947 39.9833 67.6221 41.3228Z" fill="#161719"/>
    <path d="M63.5187 42.9121C64.9665 45.401 64.5916 48.1004 62.681 48.9414C60.7706 49.7824 58.0481 48.4465 56.6002 45.9576C55.1523 43.4688 55.5273 40.7694 57.4378 39.9284C59.3483 39.0874 62.0708 40.4232 63.5187 42.9121Z" fill="#FF6170"/>
    <path d="M60.8753 43.0738C61.5443 44.0614 61.5193 45.1879 60.8196 45.59C60.1199 45.992 59.0103 45.5174 58.3413 44.5298C57.6724 43.5422 57.6973 42.4157 58.397 42.0136C59.0968 41.6116 60.2063 42.0862 60.8753 43.0738Z" fill="#161719"/>
    <path d="M78.3372 75.7954C81.8856 75.7805 85.0853 75.4368 87.9069 74.7647C92.2698 73.7257 94.8828 72.0835 96.3065 70.8889C97.3946 69.976 98.532 68.4711 98.5799 68.4075C98.7736 68.1501 98.7159 67.789 98.4511 67.6007C98.1862 67.4124 97.8144 67.4684 97.6206 67.7257C97.6097 67.7403 96.5141 69.189 95.5297 70.0149C92.6786 72.4072 85.4596 76.1051 69.1339 74.0255C69.0169 74.0106 68.7792 73.9783 68.7792 73.9783L68.7773 75.1444L68.7777 75.1456C68.7777 75.1456 68.9064 75.1664 68.9777 75.1755C72.3186 75.601 75.4438 75.8076 78.3372 75.7954Z" fill="white"/>
    <path d="M115.626 35.9056C115.955 36.6005 116.054 37.605 115.522 38.0941C114.99 38.5831 113.828 38.6248 113.27 38.1497C112.713 37.6747 110.548 35.7051 109.659 35.4286C108.77 35.152 107.743 34.2088 107.993 33.2838C108.244 32.3588 109.369 31.9706 110.86 32.12C113.08 32.3425 114.816 34.1997 115.626 35.9056Z" fill="#161719"/>
    <path d="M84.7418 31.1338C84.2277 31.7226 83.8499 32.6731 84.2271 33.2887C84.6043 33.9042 85.7162 34.2506 86.3891 33.9356C87.062 33.6207 89.7092 32.2759 90.6469 32.2411C91.5846 32.2063 92.8431 31.5598 92.8603 30.5945C92.8776 29.6292 91.8984 28.9556 90.4151 28.7084C88.2046 28.3401 86.0037 29.6885 84.7418 31.1338Z" fill="#161719"/>
    <path d="M112.681 49.9048C111.464 54.5846 106.567 57.4184 101.743 56.2343C96.9186 55.0501 93.9944 50.2965 95.2113 45.6167C96.4283 40.9369 101.326 38.1031 106.15 39.2872C110.974 40.4713 113.898 45.225 112.681 49.9048Z" fill="#68578A"/>
    <path d="M99.7752 45.9318C98.5579 50.6128 93.6604 53.4475 88.8361 52.2634C84.0119 51.0793 81.088 46.3247 82.3052 41.6437C83.5225 36.9627 88.4201 34.1279 93.2443 35.312C98.0685 36.4962 100.992 41.2508 99.7752 45.9318Z" fill="#68578A"/>
    <path d="M109.561 49.1388C108.779 52.1479 105.63 53.9702 102.53 53.2091C99.4286 52.448 97.5492 49.3916 98.3317 46.3824C99.1142 43.3733 102.262 41.551 105.363 42.3121C108.464 43.0732 110.344 46.1296 109.561 49.1388Z" fill="white"/>
    <path d="M107.588 48.4092C107.218 49.8295 105.732 50.6895 104.268 50.3301C102.803 49.9707 101.916 48.5279 102.285 47.1076C102.654 45.6873 104.141 44.8273 105.605 45.1867C107.069 45.5461 107.957 46.9889 107.588 48.4092Z" fill="#161719"/>
    <path d="M96.6568 45.1661C95.8743 48.1752 92.7262 49.9976 89.6253 49.2364C86.5243 48.4753 84.6449 45.4189 85.4274 42.4098C86.2099 39.4006 89.3581 37.5783 92.459 38.3394C95.5599 39.1006 97.4393 42.157 96.6568 45.1661Z" fill="white"/>
    <path d="M94.6816 44.4356C94.3122 45.8559 92.8257 46.7159 91.3613 46.3565C89.897 45.997 89.0093 44.5543 89.3786 43.1339C89.748 41.7136 91.2345 40.8536 92.6988 41.2131C94.1632 41.5725 95.0509 43.0153 94.6816 44.4356Z" fill="#161719"/>
    <path d="M68.6115 96.6011C68.6115 96.6011 71.6142 98.3958 80.623 99.4515C90.8055 100.645 100.271 98.3901 100.271 98.3901L99.5521 101.492L97.9661 124.498L70.4651 122.68C69.9573 119.925 69.3165 116.412 69.0137 113.184C68.7363 110.227 68.6047 107.437 68.5742 104.842C68.5866 102.095 68.599 99.3479 68.6115 96.6011Z" fill="white"/>
    <path d="M47.1236 96.4085C47.1236 96.4085 42.5811 93.8062 42.4829 98.4692C42.456 99.745 42.6196 101.256 44.7257 102.898L48.5016 99.3586L47.1236 96.4085Z" fill="#594D77"/>
    <path d="M68.6964 95.9819C68.4793 95.3894 62.7481 101.35 54.0666 100.654C49.3253 100.273 48.495 98.9152 48.495 98.9152L43.8184 104.238C43.8184 104.238 49.6797 115.087 69.4426 110.679L68.6964 95.9819Z" fill="white"/>
    <path d="M48.4919 98.9155L51.7732 99.9979L47.4532 106.461L45.9844 101.761L48.4919 98.9155Z" fill="#D5E3F7"/>
    <path d="M44.4885 105.39C44.4885 105.39 43.9108 108.908 43.3262 109.59C43.1061 109.847 42.4512 110.636 42.4512 110.636C42.4512 110.636 42.6144 111.595 43.4247 111.767C43.4247 111.767 44.0041 110.974 44.2384 109.894C44.6023 108.217 44.4885 105.39 44.4885 105.39Z" fill="#747B47"/>
    <path d="M46.869 105.381C46.869 105.381 47.478 108.894 48.0686 109.571C48.2909 109.826 48.9529 110.61 48.9529 110.61C48.9529 110.61 48.7982 111.569 47.9895 111.749C47.9895 111.749 47.3855 110.944 47.1592 109.882C46.7525 107.974 46.869 105.381 46.869 105.381Z" fill="#747B47"/>
    <path d="M45.04 105.213C45.261 105.288 44.9273 110.883 44.2227 112.38C44.2227 112.38 44.7423 113.872 45.5268 113.473L45.6998 112.25L45.882 113.339C46.7893 113.414 47.1775 112.235 47.1775 112.235C46.3059 110.525 46.1524 104.9 46.1524 104.9L45.04 105.213Z" fill="#747B47"/>
    <path d="M44.5079 104.775C44.5079 104.775 43.7483 107.395 43.1638 108.077C42.9437 108.334 41.9974 108.785 41.9974 108.785C41.9974 108.785 41.8469 109.665 42.6572 109.837C42.6572 109.837 43.8576 108.835 44.0759 108.381C44.4711 107.559 44.5079 104.775 44.5079 104.775Z" fill="#747B47"/>
    <path d="M47.0014 104.896C47.0014 104.896 47.6487 107.51 48.2393 108.187C48.4617 108.442 49.412 108.886 49.412 108.886C49.412 108.886 49.5703 109.764 48.7616 109.943C48.7616 109.943 47.5523 108.951 47.3299 108.499C46.9275 107.68 47.0014 104.896 47.0014 104.896Z" fill="#747B47"/>
    <path d="M44.0628 100.039C44.0592 100.066 44.0525 100.09 44.0502 100.118C43.5469 106.075 42.4551 105.267 42.4551 105.267C42.729 105.881 43.4508 105.395 43.4508 105.395C43.2334 105.879 43.1935 106.512 43.1935 106.512C44.1452 107.08 45.522 107.429 46.6531 107.063C48.1975 106.564 46.9153 102.079 46.186 99.8887C45.4627 99.585 44.698 99.5487 44.0628 100.039Z" fill="#ECC12F"/>
    <path d="M47.2605 100.546C46.7793 100.158 46.2233 99.8465 45.6646 99.7231L44.5605 106.954C44.6053 107.294 46.8958 107.423 48.1965 106.623C48.1965 106.623 48.1509 105.99 47.9293 105.507C47.9293 105.507 48.6553 105.988 48.9238 105.371C48.9238 105.371 47.7339 106.073 47.2605 100.546Z" fill="#ECC12F"/>
    <path d="M46.5987 100.095C46.5758 100.082 46.5537 100.067 46.5306 100.054C46.435 101.074 46.1302 104.138 46.2781 104.911C46.4774 105.953 46.6491 105.788 46.6491 105.788C46.6491 105.788 47.0229 104.688 46.978 103.546L46.5987 100.095Z" fill="#CFAA3F"/>
    <path d="M47.1385 97.6598L47.1522 100.435C47.1522 100.435 49.2889 99.3839 48.9934 97.4245C48.87 96.6062 46.6545 94.6794 45.0352 96.8625L47.1385 97.6598Z" fill="#6A5C8E"/>
    <path d="M99.8159 121.517C94.8716 121.948 89.4221 122.195 83.5407 122.115C78.8032 122.051 74.3627 121.783 70.2575 121.389C70.0987 127.585 69.817 133.913 69.6582 140.11L83.2401 140.378L83.962 134.517L85.8935 134.978L86.6563 141.067L99.8846 140.287L99.6124 128.593L99.8159 121.517Z" fill="#363D51"/>
    <path d="M97.6016 122.889C97.6016 122.889 98.4469 125.8 102.216 124.942C104.501 124.422 104.218 123.252 104.218 123.252L100.596 122.006L97.6016 122.889Z" fill="#5E507D"/>
    <path d="M111.315 119.466L95.5038 123.366C94.8824 123.519 94.245 123.15 94.0873 122.547L91.5221 112.729C91.3643 112.125 91.7437 111.506 92.365 111.353L108.177 107.453C108.798 107.3 109.435 107.668 109.593 108.272L112.158 118.09C112.316 118.694 111.937 119.313 111.315 119.466Z" fill="#C4C4C3"/>
    <path d="M98.2138 117.734C98.9783 117.545 99.4407 116.79 99.2466 116.048C99.0526 115.305 98.2756 114.856 97.5111 115.044C96.7467 115.233 96.2843 115.988 96.4783 116.731C96.6724 117.473 97.4494 117.922 98.2138 117.734Z" fill="#AEAEAE"/>
    <path d="M108.462 107.854H108.462C108.791 107.854 109.078 108.07 109.159 108.379L111.724 118.197C111.821 118.57 111.588 118.95 111.205 119.044L95.3936 122.944C95.3361 122.958 95.2773 122.965 95.2187 122.965C94.889 122.965 94.6024 122.749 94.5216 122.44L91.9563 112.622C91.9095 112.442 91.9379 112.255 92.0364 112.094C92.1349 111.934 92.2907 111.82 92.4752 111.775L108.287 107.875C108.344 107.861 108.403 107.854 108.462 107.854ZM108.462 107.418C108.367 107.418 108.272 107.43 108.177 107.453L92.365 111.353C91.7437 111.506 91.3643 112.125 91.5221 112.729L94.0873 122.547C94.2209 123.058 94.6982 123.4 95.2187 123.4C95.3129 123.4 95.4086 123.389 95.5038 123.366L111.315 119.466C111.937 119.313 112.316 118.694 112.158 118.09L109.593 108.272C109.459 107.761 108.982 107.418 108.462 107.418Z" fill="#AEAEAE"/>
    <path d="M100.845 97.9956C101.38 98.1567 117.078 102.805 105.467 124.076L99.2102 122.47C99.2102 122.47 103.847 110.336 95.3872 107.929L95.2949 101.082L100.845 97.9956Z" fill="white"/>
    <path d="M81.7924 105.901C82.1625 105.9 82.4611 105.553 82.4592 105.127C82.4573 104.701 82.1557 104.357 81.7855 104.359C81.4153 104.36 81.1168 104.707 81.1187 105.133C81.1206 105.559 81.4222 105.903 81.7924 105.901Z" fill="#C4C4C4"/>
    <path d="M68.6112 92.3047L82.1118 97.6535L101.136 93.8499L101.278 98.0535C101.278 98.0535 87.3383 105.199 86.9663 104.961C86.5943 104.722 82.2467 100.176 82.2467 100.176L75.3427 104.649L67.9687 96.1112L68.6112 92.3047Z" fill="#D5E3F7"/>
    <path d="M82.0811 99.334C81.8549 99.6636 78.7904 102.14 78.7904 102.14L80.4693 104.032L78.7734 111.209L81.2617 115.275L84.4286 111.429L83.0213 104.097L84.7003 102.401L82.0811 99.334Z" fill="#68578A"/>
    <path d="M99.1914 122.479L99.8821 119.05L107.213 120.998L105.646 124.224L99.1914 122.479Z" fill="#D5E3F7"/>
    <path d="M97.6825 116.075C97.19 116.23 96.9961 116.631 96.9961 116.631L96.9979 116.638C96.9979 116.638 97.3644 116.894 97.8713 116.792L97.7913 117.557C97.7913 117.557 99.0625 117.341 98.9655 116.193L98.9296 116.062C98.4274 115.019 97.2137 115.444 97.2137 115.444L97.6825 116.075Z" fill="#CCCCCC"/>
</svg>
