<svg xmlns="http://www.w3.org/2000/svg" width="69" height="61" viewBox="0 0 69 61" fill="none"><path d="M42.0923 20.0025C38.7423 20.0025 36.0273 22.7175 36.0273 26.0675V37H36.0348C36.1098 39.2425 38.0123 41.0225 40.3023 40.89C42.4523 40.765 44.0948 38.9075 44.0948 36.7525C44.0948 36.23 44.3398 35.735 44.7623 35.4275C46.8198 33.9325 48.1573 31.5075 48.1573 28.77V26.065C48.1573 22.715 45.4423 20 42.0923 20V20.0025Z" fill="#FFB443"></path><path d="M39.0098 34.5523C39.9898 34.8598 41.2298 34.1748 41.8923 32.9073C42.6123 31.5298 42.3748 29.9848 41.3648 29.4573C40.9398 29.2348 40.4473 29.2298 39.9648 29.3973V27.0123C39.9648 25.5723 41.1323 24.4048 42.5723 24.4048C44.0123 24.4048 45.1798 25.5723 45.1798 27.0123" stroke="#FF8F0D" stroke-width="2.5" stroke-linecap="round" stroke-linejoin="round"></path><path d="M26.065 20.0024C29.415 20.0024 32.13 22.7174 32.13 26.0674V28.7999V36.8624V36.9999H32.1225C32.0475 39.2424 30.145 41.0224 27.855 40.8899C25.705 40.7649 24.0625 38.9074 24.0625 36.7524C24.0625 36.2299 23.8175 35.7349 23.395 35.4274C21.3375 33.9324 20 31.5099 20 28.7724V26.0674C20 22.7174 22.715 20.0024 26.065 20.0024Z" fill="#FFB443"></path><path d="M29.1505 34.5523C28.1705 34.8598 26.9305 34.1748 26.268 32.9073C25.548 31.5298 25.7855 29.9848 26.7955 29.4573C27.2205 29.2348 27.713 29.2298 28.1955 29.3973V27.0123C28.1955 25.5723 27.028 24.4048 25.588 24.4048C24.148 24.4048 22.9805 25.5723 22.9805 27.0123" stroke="#FF8F0D" stroke-width="2.5" stroke-linecap="round" stroke-linejoin="round"></path></svg>