<svg xmlns="http://www.w3.org/2000/svg" width="28" height="28" viewBox="0 0 28 28" fill="none">
  <path d="M 12 28 C 12 29.105 12.895 30 14 30 C 15.105 30 16 29.105 16 28 L 14 28 L 12 28 Z M 14 0 L 15.414 -1.414 C 14.633 -2.195 13.367 -2.195 12.586 -1.414 L 14 0 Z M -1.414 12.586 C -2.195 13.367 -2.195 14.633 -1.414 15.414 C -0.633 16.195 0.633 16.195 1.414 15.414 L 0 14 L -1.414 12.586 Z M 26.586 15.414 C 27.367 16.195 28.633 16.195 29.414 15.414 C 30.195 14.633 30.195 13.367 29.414 12.586 L 28 14 L 26.586 15.414 Z M 14 28 L 16 28 L 16 0 L 14 0 L 12 0 L 12 28 L 14 28 Z M 0 14 L 1.414 15.414 L 15.414 1.414 L 14 0 L 12.586 -1.414 L -1.414 12.586 L 0 14 Z M 14 0 L 12.586 1.414 L 26.586 15.414 L 28 14 L 29.414 12.586 L 15.414 -1.414 L 14 0 Z" fill="currentColor" fill-rule="nonzero"></path>
</svg>