<svg width="198" height="198" viewBox="0 0 198 198" fill="none" xmlns="http://www.w3.org/2000/svg">
    <path d="M175.662 59.8556H133.727C105.001 59.1546 98.5511 73.1216 98.5511 73.1216C98.5511 73.1216 92.1012 59.1546 63.3751 59.8556H20.3942C18.4437 59.856 16.5732 60.6796 15.1941 62.1452C13.8151 63.6107 13.0404 65.5983 13.0404 67.6707C13.0404 82.6692 12.5985 132.776 12.362 158.524C12.2831 167.116 19.2225 174.092 27.8145 174.092C40.4543 174.092 57.1508 174.092 63.3751 174.092C76.5684 174.092 85.418 178.256 91.0103 182.5C93.3459 184.251 96.1432 185.174 99.0019 185.134C101.861 185.095 104.634 184.095 106.926 182.28C112.257 178.113 120.759 174.092 133.724 174.092C139.767 174.092 155.493 174.092 167.572 174.092C176.106 174.092 183.017 167.207 183.017 158.673C183.017 132.969 183.017 82.6973 183.017 67.6707C183.017 66.6444 182.827 65.6281 182.457 64.68C182.088 63.7318 181.546 62.8703 180.863 62.1446C180.18 61.4189 179.369 60.8432 178.477 60.4505C177.584 60.0577 176.628 59.8556 175.662 59.8556Z" fill="#C65EE0"/>
    <path d="M98.5522 64.4967C98.5522 64.4967 92.9292 51.9317 67.8856 52.561H37.7093C36.0086 52.561 34.3776 53.3017 33.175 54.6202C31.9725 55.9387 31.2969 57.7269 31.2969 59.5916V148.301C31.2969 150.166 31.9725 151.954 33.175 153.273C34.3776 154.591 36.0086 155.332 37.7093 155.332H67.8856C91.3557 155.332 98.5522 167.266 98.5522 167.266V64.4967Z" fill="#A8E5FF"/>
    <path d="M98.5508 64.4967C98.5508 64.4967 104.117 51.9317 128.909 52.561H158.781C160.465 52.561 162.079 53.3017 163.27 54.6202C164.46 55.9387 165.129 57.7269 165.129 59.5916V148.301C165.129 150.166 164.46 151.954 163.27 153.273C162.079 154.591 160.465 155.332 158.781 155.332H128.909C105.675 155.332 98.5508 167.266 98.5508 167.266V64.4967Z" fill="#A8E5FF"/>
    <path d="M85.8654 52.6388L100.764 46.0038C101.588 45.6355 102.287 45.0366 102.778 44.2793C103.269 43.5221 103.53 42.6389 103.53 41.7364C103.53 40.8339 103.269 39.9508 102.778 39.1935C102.287 38.4362 101.588 37.8373 100.764 37.4689L85.8654 30.8339C84.8251 30.3416 83.992 29.4979 83.5129 28.4514L76.878 13.583C76.5096 12.7591 75.9106 12.0596 75.1534 11.5686C74.3961 11.0777 73.5129 10.8164 72.6105 10.8164C71.708 10.8164 70.8248 11.0777 70.0676 11.5686C69.3103 12.0596 68.7113 12.7591 68.3429 13.583L61.708 28.4514C61.2379 29.504 60.4021 30.3504 59.3556 30.8339L44.4873 37.4689C43.6634 37.8373 42.9638 38.4362 42.4728 39.1935C41.9819 39.9508 41.7207 40.8339 41.7207 41.7364C41.7207 42.6389 41.9819 43.5221 42.4728 44.2793C42.9638 45.0366 43.6634 45.6355 44.4873 46.0038L59.3556 52.6388C60.4067 53.1007 61.2461 53.9402 61.708 54.9912L68.3429 69.8596C68.7113 70.6834 69.3103 71.3831 70.0676 71.874C70.8248 72.3649 71.708 72.6261 72.6105 72.6261C73.5129 72.6261 74.3961 72.3649 75.1534 71.874C75.9106 71.3831 76.5096 70.6834 76.878 69.8596L83.5129 54.9912C83.9844 53.9468 84.821 53.1103 85.8654 52.6388Z" fill="#FF8F0D"/>
    <path d="M140.614 101.902L151.043 97.2572C151.62 96.9993 152.11 96.5801 152.453 96.05C152.797 95.5199 152.98 94.9017 152.98 94.27C152.98 93.6383 152.797 93.02 152.453 92.4899C152.11 91.9599 151.62 91.5406 151.043 91.2827L140.614 86.6382C139.886 86.2936 139.303 85.703 138.967 84.9705L134.323 74.5626C134.065 73.9859 133.646 73.4962 133.116 73.1525C132.586 72.8089 131.967 72.626 131.336 72.626C130.704 72.626 130.086 72.8089 129.556 73.1525C129.026 73.4962 128.606 73.9859 128.348 74.5626L123.704 84.9705C123.375 85.7073 122.79 86.2998 122.057 86.6382L111.649 91.2827C111.073 91.5406 110.583 91.9599 110.239 92.4899C109.896 93.02 109.713 93.6383 109.713 94.27C109.713 94.9017 109.896 95.5199 110.239 96.05C110.583 96.5801 111.073 96.9993 111.649 97.2572L122.057 101.902C122.793 102.225 123.381 102.813 123.704 103.548L128.348 113.956C128.606 114.533 129.026 115.023 129.556 115.366C130.086 115.71 130.704 115.893 131.336 115.893C131.967 115.893 132.586 115.71 133.116 115.366C133.646 115.023 134.065 114.533 134.323 113.956L138.967 103.548C139.297 102.817 139.883 102.232 140.614 101.902Z" fill="#FF8F0D"/>
    <path d="M79.2462 130.623L86.6954 127.306C87.1073 127.121 87.4572 126.822 87.7026 126.443C87.9481 126.065 88.0787 125.623 88.0787 125.172C88.0787 124.721 87.9481 124.279 87.7026 123.9C87.4572 123.522 87.1073 123.222 86.6954 123.038L79.2462 119.721C78.726 119.474 78.3095 119.053 78.0699 118.529L74.7525 111.095C74.5683 110.683 74.2688 110.333 73.8902 110.088C73.5115 109.843 73.0699 109.712 72.6187 109.712C72.1675 109.712 71.7259 109.843 71.3473 110.088C70.9686 110.333 70.6691 110.683 70.485 111.095L67.1675 118.529C66.9324 119.056 66.5146 119.479 65.9913 119.721L58.5571 123.038C58.1452 123.222 57.7954 123.522 57.5499 123.9C57.3044 124.279 57.1738 124.721 57.1738 125.172C57.1738 125.623 57.3044 126.065 57.5499 126.443C57.7954 126.822 58.1452 127.121 58.5571 127.306L65.9913 130.623C66.5168 130.854 66.9365 131.274 67.1675 131.799L70.485 139.233C70.6691 139.645 70.9686 139.995 71.3473 140.241C71.7259 140.486 72.1675 140.617 72.6187 140.617C73.0699 140.617 73.5115 140.486 73.8902 140.241C74.2688 139.995 74.5683 139.645 74.7525 139.233L78.0699 131.799C78.3057 131.277 78.724 130.859 79.2462 130.623Z" fill="#FF8F0D"/>
</svg>
